{"glyphs":{"0":{"ha":819,"x_min":0,"x_max":0,"o":"m 408 990 b 47 481 101 990 47 683 b 408 -12 47 281 101 -12 b 768 481 714 -12 768 281 b 408 990 768 683 714 990 z m 408 0 b 128 481 286 0 128 82 b 408 978 128 882 283 978 b 688 481 528 978 688 882 b 408 0 688 82 535 0 z "},"1":{"ha":451,"x_min":0,"x_max":0,"o":"m 265 119 l 265 990 l 219 990 l 63 843 l 69 833 b 197 842 172 915 197 919 l 197 119 b 100 11 197 17 157 11 l 100 0 l 365 0 l 365 11 b 265 119 317 11 265 13 z "},"2":{"ha":625,"x_min":0,"x_max":0,"o":"m 571 144 b 439 65 540 89 486 65 l 128 65 b 375 442 128 65 311 350 b 543 758 483 594 543 667 b 304 990 543 885 443 990 b 57 729 304 990 54 1006 l 75 726 b 350 461 81 1074 710 964 l 54 0 l 543 0 l 582 144 z "},"3":{"ha":672,"x_min":0,"x_max":0,"o":"m 290 -12 b 606 263 411 -12 606 26 b 356 519 606 378 519 500 b 325 990 647 589 576 990 b 61 765 279 990 61 990 l 79 765 b 393 897 74 914 279 997 b 250 510 554 757 443 510 l 250 493 b 521 258 446 493 513 374 b 290 0 535 54 432 0 b 126 49 179 0 119 50 b 158 65 139 50 150 56 b 151 136 175 88 172 118 b 81 129 131 153 99 150 b 74 76 69 114 67 92 b 290 -12 92 43 168 -12 z "},"4":{"ha":713,"x_min":0,"x_max":0,"o":"m 657 293 l 657 342 l 533 342 l 533 978 l 493 978 l 40 310 l 40 293 l 460 293 l 460 128 b 369 13 460 18 428 13 l 369 0 l 624 0 l 624 13 b 533 135 565 13 533 15 l 533 293 z m 460 342 l 126 342 b 107 382 79 342 79 342 l 460 900 z "},"5":{"ha":749,"x_min":0,"x_max":0,"o":"m 118 576 l 164 903 l 621 903 l 635 978 l 154 978 l 90 497 b 603 357 356 582 550 522 b 324 0 671 131 481 0 b 138 65 196 0 122 64 b 174 85 151 67 165 71 b 158 157 188 108 182 142 b 86 140 133 172 101 164 b 88 83 75 124 79 99 b 324 -12 97 67 175 -12 b 681 371 489 -12 728 83 b 118 576 647 564 396 672 z "},"6":{"ha":700,"x_min":0,"x_max":0,"o":"m 379 594 b 132 394 226 594 164 507 b 425 976 132 794 243 992 b 521 940 513 969 532 938 b 483 929 508 942 494 936 b 475 857 463 911 458 879 b 549 849 493 835 526 831 b 565 903 564 860 571 886 b 383 990 561 917 551 990 b 58 442 164 990 58 710 b 357 -12 58 165 122 -12 b 639 303 550 -12 639 88 b 379 594 639 435 576 594 z m 357 0 b 132 336 214 0 132 93 b 375 557 147 424 199 557 b 567 282 458 557 567 517 b 357 0 567 67 461 0 z "},"7":{"ha":763,"x_min":0,"x_max":0,"o":"m 85 978 l 65 835 l 78 835 b 188 915 99 893 103 915 l 657 915 b 294 0 419 557 328 301 l 388 0 b 672 915 388 267 469 554 l 711 978 z "},"8":{"ha":715,"x_min":0,"x_max":0,"o":"m 383 549 b 163 814 246 606 163 658 b 356 978 163 915 264 978 b 547 763 446 978 543 938 b 383 549 551 640 426 556 z m 606 224 b 368 0 610 33 438 0 b 113 233 253 0 113 43 b 313 504 113 411 251 478 b 358 479 333 492 335 492 b 606 224 565 371 603 318 z m 668 246 b 400 539 668 399 542 468 b 597 760 494 565 597 681 b 356 990 597 892 522 990 b 113 768 229 990 113 911 b 301 511 113 643 151 596 b 50 232 157 456 50 351 b 368 -12 50 64 163 -12 b 668 246 539 -12 668 68 z "},"9":{"ha":688,"x_min":0,"x_max":0,"o":"m 310 389 b 549 583 463 389 517 471 b 276 1 549 128 458 -14 b 168 51 189 8 157 54 b 206 63 181 50 194 56 b 214 135 226 81 231 113 b 140 143 196 157 163 161 b 124 89 125 132 118 106 b 318 -12 128 75 150 -12 b 622 564 538 -12 622 201 b 332 990 622 840 567 990 b 50 682 139 990 50 881 b 310 389 50 550 113 389 z m 332 978 b 549 642 475 978 549 885 b 314 426 526 554 490 426 b 122 703 231 426 122 468 b 332 978 122 893 228 978 z "}," ":{"ha":326,"x_min":0,"x_max":0,"o":""},"!":{"ha":396,"x_min":0,"x_max":0,"o":"m 226 213 l 243 1033 l 167 1033 l 183 213 z m 263 46 b 204 -12 263 14 236 -12 b 144 46 171 -12 144 14 b 204 104 144 79 171 104 b 263 46 236 104 263 79 z "},"\"":{"ha":585,"x_min":0,"x_max":0,"o":"m 163 524 l 204 524 l 224 978 l 140 978 z m 393 524 l 435 524 l 456 978 l 371 978 z "},"#":{"ha":961,"x_min":0,"x_max":0,"o":"m 899 685 l 899 726 l 694 726 l 765 1036 l 717 1036 l 646 726 l 390 726 l 461 1036 l 413 1036 l 342 726 l 149 726 l 149 685 l 333 685 l 268 397 l 61 397 l 61 356 l 258 356 l 178 0 l 226 0 l 307 356 l 563 356 l 482 0 l 531 0 l 611 356 l 811 356 l 811 397 l 621 397 l 686 685 z m 572 397 l 317 397 l 382 685 l 638 685 z "},"$":{"ha":643,"x_min":0,"x_max":0,"o":"m 346 0 l 346 444 l 451 375 b 346 0 604 271 596 17 z m 292 565 l 207 621 b 292 978 -28 774 143 974 z m 451 461 l 346 529 l 346 976 b 557 693 538 965 557 876 l 571 693 l 571 926 b 346 990 571 926 482 979 l 346 1161 l 292 1161 l 292 990 b 57 881 128 988 57 881 b 206 539 -42 703 139 590 l 292 481 l 292 0 b 54 325 94 7 54 83 l 43 325 l 43 58 b 292 -12 43 58 131 -4 l 292 -181 l 346 -181 l 346 -12 b 585 101 533 -4 585 101 b 451 461 626 179 640 336 z "},"%":{"ha":1322,"x_min":0,"x_max":0,"o":"m 311 0 l 368 0 l 1001 978 l 944 978 z m 939 533 b 760 278 786 533 760 379 b 939 33 760 178 786 33 b 1119 278 1092 33 1119 178 b 939 533 1119 379 1092 533 z m 939 46 b 814 278 879 46 814 79 b 939 521 814 478 878 521 b 1065 278 999 521 1065 478 b 939 46 1065 79 1003 46 z m 375 942 b 196 686 222 942 196 788 b 375 442 196 586 222 442 b 556 686 528 442 556 586 b 375 942 556 788 528 942 z m 375 454 b 250 686 315 454 250 488 b 375 929 250 886 314 929 b 501 686 435 929 501 886 b 375 454 501 488 439 454 z "},"&":{"ha":1028,"x_min":0,"x_max":0,"o":"m 333 728 b 358 1008 267 826 247 965 b 540 968 424 1033 499 1013 b 431 590 622 865 619 701 z m 204 106 b 279 490 68 261 192 436 l 372 546 l 614 201 b 204 106 536 6 314 -18 z m 939 100 b 871 36 940 56 903 36 b 769 104 871 36 815 39 l 658 261 b 810 408 703 421 810 442 b 828 375 811 394 813 388 b 900 381 850 357 882 360 b 894 451 925 407 910 440 b 824 464 876 467 849 469 b 649 274 789 457 701 433 l 438 581 b 551 975 660 714 622 897 b 354 1031 511 1019 440 1044 b 304 643 199 1004 153 840 l 364 557 l 271 499 b 156 68 156 436 0 240 b 622 190 315 -107 583 35 l 711 57 b 844 -12 763 -19 844 -12 b 949 100 882 -12 946 19 z "},"'":{"ha":289,"x_min":0,"x_max":0,"o":"m 126 524 l 168 524 l 188 978 l 104 978 z "},"(":{"ha":429,"x_min":0,"x_max":0,"o":"m 110 353 b 411 -286 110 -44 411 -286 l 424 -269 b 186 349 172 -43 186 349 b 428 1022 186 349 171 719 l 414 1035 b 110 353 414 1035 110 750 z "},")":{"ha":433,"x_min":0,"x_max":0,"o":"m 11 1036 l -3 1024 b 239 350 254 721 239 350 b 1 -268 239 350 253 -42 l 14 -285 b 315 354 14 -285 315 -43 b 11 1036 315 751 11 1036 z "},"*":{"ha":742,"x_min":0,"x_max":0,"o":"m 651 746 l 629 817 l 383 711 l 407 978 l 332 978 l 356 711 l 111 817 l 88 746 l 347 685 l 172 485 l 232 440 l 369 668 l 507 440 l 567 485 l 392 685 z "},"+":{"ha":993,"x_min":0,"x_max":0,"o":"m 913 461 l 525 461 l 525 860 l 467 860 l 467 461 l 78 461 l 78 401 l 467 401 l 467 0 l 525 0 l 525 401 l 913 401 z "},",":{"ha":256,"x_min":0,"x_max":0,"o":"m 158 74 b 90 74 140 93 110 93 b 92 6 72 54 71 22 b 125 -7 104 -4 114 -4 b 72 -161 147 -11 179 -90 l 75 -165 b 160 -83 132 -136 144 -108 b 158 74 190 -26 188 46 z "},"-":{"ha":617,"x_min":0,"x_max":0,"o":"m 526 324 l 526 383 l 89 383 l 89 324 z "},".":{"ha":236,"x_min":0,"x_max":0,"o":"m 171 39 b 124 88 171 67 149 88 b 78 39 97 88 78 67 b 124 -7 78 14 97 -7 b 171 39 149 -7 171 14 z "},"/":{"ha":542,"x_min":0,"x_max":0,"o":"m 518 1007 l 447 1007 l 19 -29 l 90 -29 z "},":":{"ha":231,"x_min":0,"x_max":0,"o":"m 167 147 b 119 196 167 175 144 196 b 74 147 93 196 74 175 b 119 101 74 122 93 101 b 167 147 144 101 167 122 z m 167 486 b 119 535 167 514 144 535 b 74 486 93 535 74 514 b 119 440 74 461 93 440 b 167 486 144 440 167 461 z "},";":{"ha":231,"x_min":0,"x_max":0,"o":"m 167 486 b 119 535 167 514 144 535 b 74 486 93 535 74 514 b 119 440 74 461 93 440 b 167 486 144 440 167 461 z m 154 183 b 86 183 136 203 106 203 b 88 115 68 164 67 132 b 121 103 100 106 110 106 b 68 -51 143 99 175 19 l 71 -56 b 156 26 128 -26 140 1 b 154 183 186 83 183 156 z "},"<":{"ha":833,"x_min":0,"x_max":0,"o":"m 131 369 l 768 696 l 768 760 l 64 399 l 64 339 l 768 -22 l 768 39 z "},"=":{"ha":851,"x_min":0,"x_max":0,"o":"m 786 497 l 786 557 l 76 557 l 76 497 z m 786 185 l 786 244 l 76 244 l 76 185 z "},">":{"ha":833,"x_min":0,"x_max":0,"o":"m 65 39 l 65 -22 l 769 339 l 769 399 l 65 760 l 65 697 l 703 369 z "},"?":{"ha":789,"x_min":0,"x_max":0,"o":"m 658 754 b 214 976 646 976 438 1076 b 113 871 150 949 117 890 b 118 817 107 854 106 833 b 192 803 135 793 168 786 b 204 876 215 819 221 853 b 172 897 196 889 185 897 b 221 968 153 899 147 940 b 563 749 342 1015 542 1013 b 410 444 581 551 468 494 b 339 229 321 371 331 283 l 358 232 b 436 426 351 315 369 389 b 658 754 510 468 667 553 z m 297 46 b 356 104 297 78 324 104 b 415 46 389 104 415 78 b 356 -12 415 13 389 -12 b 297 46 324 -12 297 13 z "},"@":{"ha":1196,"x_min":0,"x_max":0,"o":"m 1117 325 b 736 811 1165 622 975 801 b 69 239 407 824 99 633 b 583 -296 39 -162 382 -296 b 913 -204 813 -296 913 -204 l 906 -196 b 588 -276 868 -228 742 -292 b 158 256 82 -231 158 256 b 749 779 197 590 425 806 b 1103 326 1074 753 1133 499 b 847 13 1053 56 907 13 b 801 89 792 13 796 61 b 897 504 813 139 897 504 l 840 503 l 829 467 b 696 515 829 467 803 514 b 413 196 538 517 419 368 b 588 -12 407 65 488 -12 b 735 61 674 -12 722 39 b 817 -12 728 4 757 -12 b 1117 325 899 -12 1072 50 z m 806 369 b 739 86 806 369 747 121 b 624 25 739 86 703 17 b 503 263 547 33 475 85 b 707 501 528 425 618 501 b 806 369 808 501 811 392 z "},"A":{"ha":925,"x_min":0,"x_max":0,"o":"m 794 138 l 463 978 l 457 978 l 232 347 b 24 13 128 36 93 13 l 24 0 l 301 0 l 301 13 b 246 319 135 13 169 97 l 636 319 l 690 178 b 669 13 756 22 711 13 l 669 0 l 906 0 l 906 13 b 794 138 864 15 839 26 z m 250 332 l 435 847 l 632 332 z "},"B":{"ha":740,"x_min":0,"x_max":0,"o":"m 283 965 b 503 739 388 965 503 940 b 328 501 503 524 424 501 l 214 501 l 214 965 z m 393 501 b 608 739 421 501 608 514 b 268 978 608 947 461 978 l 51 978 l 51 965 b 132 842 113 965 132 928 l 132 143 b 51 13 132 49 111 13 l 51 0 l 268 0 b 674 249 508 0 674 10 b 393 501 674 481 483 501 z m 283 13 l 214 13 l 214 489 l 328 489 b 568 254 440 489 568 483 b 283 13 568 10 428 13 z "},"C":{"ha":908,"x_min":0,"x_max":0,"o":"m 821 285 b 538 0 821 13 594 0 b 161 489 406 0 161 18 b 538 978 161 947 401 978 b 821 694 603 978 821 965 l 833 694 l 846 906 b 538 990 758 976 681 990 b 56 489 258 990 56 838 b 538 -12 56 147 258 -12 b 846 74 686 -12 743 6 l 833 285 z "},"D":{"ha":876,"x_min":0,"x_max":0,"o":"m 288 13 l 226 13 l 226 965 l 288 965 b 717 489 457 965 717 953 b 288 13 717 -1 450 13 z m 288 978 l 57 978 l 57 965 b 140 842 118 965 140 928 l 140 140 b 57 13 140 46 117 13 l 57 0 l 288 0 b 808 489 564 0 808 54 b 288 978 808 896 564 978 z "},"E":{"ha":736,"x_min":0,"x_max":0,"o":"m 640 275 b 269 13 640 0 517 13 l 192 13 l 192 488 l 322 488 b 482 351 393 488 482 486 l 494 351 l 494 636 l 482 636 b 322 500 482 501 397 500 l 192 500 l 192 965 l 293 965 b 622 742 518 965 622 961 l 635 742 l 635 978 l 39 978 l 39 965 b 107 874 100 965 107 960 l 107 135 b 39 13 107 40 97 13 l 39 0 l 653 0 l 653 275 z "},"F":{"ha":654,"x_min":0,"x_max":0,"o":"m 279 13 b 188 146 215 13 188 31 l 188 488 l 317 488 b 476 351 390 488 476 486 l 489 351 l 489 636 l 476 636 b 317 500 476 501 392 500 l 188 500 l 188 965 l 288 965 b 617 742 506 965 617 967 l 629 742 l 629 978 l 35 978 l 35 965 b 103 874 96 965 103 960 l 103 135 b 35 13 103 40 93 13 l 35 0 l 279 0 z "},"G":{"ha":950,"x_min":0,"x_max":0,"o":"m 653 389 l 653 376 b 757 146 757 376 757 375 b 483 0 757 49 646 0 b 157 489 328 0 157 107 b 483 978 157 871 325 978 b 804 694 647 978 804 940 l 817 694 l 831 906 b 483 990 744 963 674 990 b 54 489 183 990 54 765 b 483 -12 54 213 183 -12 b 826 46 632 -12 740 13 b 914 376 826 376 829 376 l 914 389 z "},"H":{"ha":810,"x_min":0,"x_max":0,"o":"m 772 967 l 772 978 l 571 978 l 571 967 b 618 792 610 954 618 954 l 618 481 l 192 481 l 192 792 b 239 967 192 954 200 954 l 239 978 l 36 978 l 36 967 b 113 792 103 954 113 935 l 113 189 b 36 13 113 38 110 32 l 36 0 l 239 0 l 239 13 b 192 189 200 26 192 19 l 192 460 l 618 460 l 618 189 b 571 13 618 56 608 26 l 571 0 l 772 0 l 772 13 b 697 189 700 32 697 75 l 697 792 b 772 967 697 954 707 954 z "},"I":{"ha":339,"x_min":0,"x_max":0,"o":"m 54 978 l 54 967 b 131 871 115 967 131 957 l 131 129 b 54 13 131 35 114 13 l 54 0 l 290 0 l 290 13 b 214 129 232 13 214 35 l 214 871 b 290 967 214 957 231 967 l 290 978 z "},"J":{"ha":464,"x_min":0,"x_max":0,"o":"m 135 978 l 135 967 b 228 669 228 967 228 931 l 228 218 b -8 -221 228 -83 111 -178 l -4 -232 b 307 253 222 -199 307 -54 l 307 839 b 407 967 307 928 344 967 l 407 978 z "},"K":{"ha":896,"x_min":0,"x_max":0,"o":"m 688 78 l 360 518 b 825 967 660 903 715 967 l 825 978 l 519 978 l 519 967 b 444 676 686 967 603 863 l 286 483 b 454 251 286 483 374 365 b 779 0 600 40 632 0 l 857 0 l 857 13 b 688 78 857 13 746 4 z m 315 978 l 315 967 b 217 871 254 967 217 972 l 217 122 b 300 13 217 28 240 13 l 300 0 l 57 0 l 57 13 b 135 122 115 13 135 28 l 135 871 b 57 967 135 957 117 967 l 57 978 z "},"L":{"ha":740,"x_min":0,"x_max":0,"o":"m 656 301 b 254 13 656 13 551 11 l 204 13 l 204 843 b 279 967 204 943 219 967 l 279 978 l 60 978 l 60 967 b 125 856 119 967 125 940 l 125 151 b 71 13 125 57 131 13 l 71 0 l 667 0 l 667 301 z "},"M":{"ha":1156,"x_min":0,"x_max":0,"o":"m 1011 157 l 1011 843 b 1118 965 1011 947 1058 965 l 1118 978 l 932 978 l 657 110 l 271 978 l 68 978 l 68 965 b 221 878 100 964 169 965 l 221 340 b 36 13 221 28 171 13 l 36 0 l 401 0 l 401 13 b 233 340 283 13 233 19 l 233 854 l 619 -12 l 631 -12 l 932 938 l 932 157 b 832 13 932 26 890 13 l 832 0 l 1124 0 l 1124 13 b 1011 157 1064 13 1011 26 z "},"N":{"ha":1038,"x_min":0,"x_max":0,"o":"m 649 978 l 649 967 b 822 639 822 967 822 897 l 822 118 l 181 978 l 7 978 l 7 967 b 172 856 43 964 83 967 l 232 776 l 232 340 b 39 13 232 90 231 13 l 39 0 l 419 0 l 419 13 b 244 340 246 13 244 94 l 244 760 l 819 0 l 819 0 l 835 0 l 835 639 b 1021 967 835 897 829 967 l 1021 978 z "},"O":{"ha":969,"x_min":0,"x_max":0,"o":"m 482 0 b 139 482 317 0 139 100 b 482 978 139 863 317 978 b 822 482 646 978 822 863 b 482 0 822 100 646 0 z m 482 990 b 58 482 176 990 58 757 b 482 -12 58 206 176 -12 b 906 482 788 -12 906 206 b 482 990 906 757 788 990 z "},"P":{"ha":718,"x_min":0,"x_max":0,"o":"m 207 433 b 581 697 411 433 581 429 b 207 967 581 978 396 967 l 207 967 z m 207 190 b 318 13 207 14 203 13 l 318 0 l 43 0 l 43 13 b 135 183 119 13 135 14 l 135 865 b 56 967 135 971 135 967 l 56 978 l 207 978 b 656 697 483 978 656 960 b 207 421 656 438 483 421 l 207 421 z "},"Q":{"ha":954,"x_min":0,"x_max":0,"o":"m 697 -196 b 894 -164 797 -228 854 -194 l 904 -172 l 843 -218 b 469 -178 738 -292 689 -278 l 375 -135 b 147 -172 303 -108 182 -150 l 136 -161 b 515 -129 292 -36 515 -129 z m 481 0 b 138 482 315 0 138 100 b 481 978 138 863 315 978 b 821 482 644 978 821 863 b 481 0 821 100 644 0 z m 481 990 b 57 482 175 990 57 757 b 481 -12 57 206 175 -12 b 904 482 786 -12 904 206 b 481 990 904 757 786 990 z "},"R":{"ha":754,"x_min":0,"x_max":0,"o":"m 610 122 b 361 456 549 483 454 439 b 607 713 494 456 607 506 b 218 978 607 944 494 978 l 33 978 l 33 965 b 106 878 94 965 106 964 l 106 158 b 33 13 106 18 93 13 l 33 0 l 251 0 l 251 13 b 175 122 193 13 175 24 l 175 451 l 240 451 b 497 303 313 451 467 451 b 663 0 560 1 553 0 l 746 0 l 746 13 b 610 122 710 15 638 17 z m 218 464 l 175 464 l 175 965 l 218 965 b 526 713 381 965 526 978 b 218 464 526 461 399 464 z "},"S":{"ha":696,"x_min":0,"x_max":0,"o":"m 467 461 l 222 621 b 308 978 -15 775 158 978 b 572 693 549 978 572 893 l 586 693 l 586 926 b 308 990 586 926 474 990 b 72 881 140 990 72 881 b 221 539 -26 703 154 590 l 467 375 b 339 0 624 268 613 0 b 69 325 114 0 69 71 l 58 325 l 58 58 b 340 -12 58 58 157 -12 b 600 101 547 -12 600 101 b 467 461 642 179 656 336 z "},"T":{"ha":840,"x_min":0,"x_max":0,"o":"m 26 978 l 26 768 l 38 768 b 244 967 38 968 158 967 l 382 967 l 382 101 b 299 13 382 13 357 13 l 299 0 l 539 0 l 539 13 b 456 101 481 13 456 13 l 456 967 l 593 967 b 800 768 632 967 800 968 l 813 768 l 813 978 z "},"U":{"ha":901,"x_min":0,"x_max":0,"o":"m 733 322 l 733 665 b 882 965 733 928 728 965 l 882 965 l 882 978 l 581 978 l 581 965 b 721 665 713 965 721 928 l 721 322 b 449 29 721 140 626 29 b 175 311 279 29 175 129 l 175 843 b 267 965 175 963 207 965 l 267 978 l 17 978 l 17 965 b 101 847 78 965 101 950 l 101 325 b 401 -12 101 99 231 -12 b 733 322 622 -12 735 122 z "},"V":{"ha":978,"x_min":0,"x_max":0,"o":"m 650 978 l 650 965 b 697 633 821 965 785 892 l 499 85 l 218 881 b 322 965 211 900 207 965 l 322 978 l 18 978 l 18 965 b 149 875 76 965 115 963 l 465 0 l 481 0 l 710 633 b 946 965 822 967 826 965 l 946 978 z "},"W":{"ha":1375,"x_min":0,"x_max":0,"o":"m 1057 978 l 1057 965 b 1110 635 1210 965 1189 900 l 926 90 l 668 888 b 774 965 664 907 651 965 l 774 978 l 469 978 l 469 965 b 607 861 526 965 574 949 l 672 654 l 497 94 l 219 888 b 325 965 213 907 203 965 l 325 978 l 19 978 l 19 965 b 157 861 78 965 124 949 l 465 0 l 482 0 l 679 636 l 893 0 l 908 0 l 1124 633 b 1353 965 1224 932 1214 965 l 1353 978 z "},"X":{"ha":911,"x_min":0,"x_max":0,"o":"m 704 144 l 483 525 l 551 640 b 876 965 743 965 742 965 l 876 978 l 560 978 l 560 965 b 539 647 694 965 690 919 l 475 538 l 325 804 b 335 965 233 958 289 965 l 335 978 l 61 978 l 61 965 b 228 831 124 965 147 961 l 440 483 l 361 356 b 31 11 151 17 140 11 l 31 0 l 331 0 l 331 11 b 372 346 194 11 203 25 l 449 471 l 621 168 b 618 11 668 93 711 11 l 618 0 l 874 0 l 874 11 b 704 144 799 17 779 15 z "},"Y":{"ha":851,"x_min":0,"x_max":0,"o":"m 532 978 l 532 965 b 582 681 708 965 676 872 l 463 439 l 250 811 b 282 967 156 971 233 967 l 282 978 l 13 978 l 13 967 b 154 860 68 961 92 967 b 407 417 154 860 203 778 l 407 144 b 317 14 407 13 375 14 l 317 0 l 557 0 l 557 14 b 465 144 499 14 465 13 l 465 418 l 586 663 b 831 965 738 969 746 965 l 831 978 z "},"Z":{"ha":713,"x_min":0,"x_max":0,"o":"m 650 978 l 100 978 l 78 697 l 99 697 b 510 965 129 956 178 965 l 581 965 l 78 0 l 628 0 l 661 325 l 640 325 b 174 14 599 21 543 14 z "},"[":{"ha":393,"x_min":0,"x_max":0,"o":"m 157 1021 l 157 -203 l 372 -203 l 372 -189 b 225 -83 300 -189 225 -185 l 225 889 b 372 1007 225 1006 297 1007 l 372 1021 z "},"\\":{"ha":542,"x_min":0,"x_max":0,"o":"m 447 -28 l 513 -28 l 85 1008 l 19 1008 z "},"]":{"ha":396,"x_min":0,"x_max":0,"o":"m 15 1021 l 15 1007 b 163 889 90 1007 163 1006 l 163 -83 b 15 -189 163 -185 88 -189 l 15 -203 l 231 -203 l 231 1021 z "},"^":{"ha":769,"x_min":0,"x_max":0,"o":"m 396 978 l 364 978 l 124 522 l 144 522 l 379 878 l 618 522 l 639 522 z "},"_":{"ha":778,"x_min":0,"x_max":0,"o":"m 0 -117 l 0 -160 l 778 -160 l 778 -117 z "},"`":{"ha":429,"x_min":0,"x_max":0,"o":"m 114 994 l 46 975 l 360 772 l 371 772 z "},"a":{"ha":618,"x_min":0,"x_max":0,"o":"m 407 129 b 256 28 392 96 354 28 b 126 154 176 28 126 74 b 407 354 126 251 222 308 z m 540 33 b 482 111 482 33 482 111 l 482 376 b 329 654 482 542 450 654 b 207 628 329 654 264 656 b 99 525 133 588 106 542 b 108 472 92 508 96 488 b 178 467 126 450 157 449 b 183 539 199 486 201 518 b 150 557 174 550 163 554 b 218 619 143 558 154 589 b 407 442 344 672 407 583 l 407 367 b 57 132 175 306 57 258 b 214 -12 57 -14 214 -12 b 407 108 310 -12 389 36 b 503 -12 407 -19 503 -12 b 597 78 561 -12 590 38 l 586 82 b 540 33 576 33 540 33 z "},"b":{"ha":708,"x_min":0,"x_max":0,"o":"m 333 0 b 158 193 225 0 158 81 l 158 438 b 333 622 158 551 226 622 b 556 292 463 622 556 504 b 333 0 556 61 417 0 z m 360 654 b 158 551 283 654 199 618 l 158 1014 l 19 990 l 19 978 b 90 911 78 978 90 958 l 90 7 b 153 56 90 -15 128 22 b 339 -12 200 15 260 -12 b 647 318 515 -12 647 114 b 360 654 647 481 574 654 z "},"c":{"ha":646,"x_min":0,"x_max":0,"o":"m 589 176 b 375 18 571 110 508 18 b 146 322 274 18 146 101 b 378 642 146 601 317 642 b 540 589 507 642 554 585 b 506 586 533 592 519 592 b 486 522 482 575 474 547 b 550 504 496 500 528 494 b 575 547 567 514 575 529 b 378 654 575 571 551 654 b 63 317 190 654 63 497 b 361 -12 63 71 233 -12 b 599 175 529 -12 588 107 z "},"d":{"ha":693,"x_min":0,"x_max":0,"o":"m 540 181 b 371 19 540 83 460 19 b 147 354 242 19 147 138 b 371 642 147 589 288 642 b 540 471 460 642 540 565 z m 608 83 l 608 1014 l 469 990 l 469 978 b 540 906 526 978 540 954 l 540 594 b 365 654 494 631 438 654 b 56 328 189 654 56 536 b 344 -12 56 160 129 -12 b 540 81 417 -12 499 21 l 540 14 b 579 -11 540 14 540 -18 l 679 10 l 679 21 b 608 83 624 15 608 15 z "},"e":{"ha":635,"x_min":0,"x_max":0,"o":"m 356 15 b 133 333 231 15 133 96 l 579 333 b 331 654 579 554 453 654 b 51 313 179 654 51 528 b 338 -12 51 108 174 -12 b 558 160 479 -12 551 101 l 550 161 b 356 15 533 89 449 15 z m 133 347 b 331 642 133 563 253 642 b 510 347 386 642 510 576 z "},"f":{"ha":367,"x_min":0,"x_max":0,"o":"m 403 996 b 296 1032 392 1010 347 1032 b 107 642 146 1032 107 926 l 17 642 l 18 629 l 107 629 l 107 81 b 53 11 107 17 106 18 l 53 0 l 254 0 l 254 11 b 176 81 204 17 176 11 l 176 629 l 336 629 l 339 642 l 176 642 b 296 1021 176 967 217 1021 b 340 997 325 1021 347 1001 b 317 968 331 993 321 982 b 351 903 307 939 324 911 b 417 938 379 894 408 910 b 403 996 422 957 415 982 z "},"g":{"ha":714,"x_min":0,"x_max":0,"o":"m 703 636 b 653 658 692 651 672 658 b 533 586 619 658 565 635 b 340 654 488 628 414 654 b 88 438 190 654 88 550 b 193 250 88 364 115 285 b 79 119 69 226 79 119 b 132 24 79 82 89 44 b 46 -226 31 -44 -8 -139 b 475 -247 106 -324 290 -351 b 624 -65 621 -165 624 -65 b 376 68 646 89 472 68 l 238 68 b 203 244 56 68 111 239 b 340 219 242 228 286 219 b 594 438 493 219 594 325 b 540 579 594 488 576 544 b 617 617 567 624 621 628 b 624 579 613 604 615 590 b 690 569 638 557 668 554 b 703 636 711 585 717 614 z m 143 17 b 254 0 186 1 239 0 l 450 0 b 585 -67 588 0 585 -67 b 468 -236 585 -67 593 -157 b 118 -210 351 -311 172 -274 b 143 17 124 -215 7 -85 z m 340 231 b 167 438 279 231 167 282 b 340 642 167 593 271 642 b 515 438 400 642 515 593 b 340 231 515 282 404 231 z "},"h":{"ha":658,"x_min":0,"x_max":0,"o":"m 572 89 l 572 422 b 364 654 572 589 481 654 b 161 490 268 654 178 575 l 161 1014 l 22 990 l 22 978 b 92 910 81 978 92 958 l 92 89 b 36 13 92 18 89 28 l 36 0 l 218 0 l 218 13 b 161 89 168 25 161 13 l 161 478 b 332 617 176 517 233 617 b 504 417 446 617 504 539 l 504 89 b 449 11 504 18 501 26 l 449 0 l 629 0 l 629 11 b 572 89 581 24 572 13 z "},"i":{"ha":289,"x_min":0,"x_max":0,"o":"m 179 654 l 42 631 l 42 619 b 110 551 100 619 110 600 l 110 89 b 54 13 110 18 107 28 l 54 0 l 236 0 l 236 13 b 179 89 186 25 179 13 z m 178 821 b 131 869 178 849 156 869 b 85 821 104 869 85 849 b 131 775 85 796 104 775 b 178 821 156 775 178 796 z "},"j":{"ha":293,"x_min":0,"x_max":0,"o":"m 114 38 b -25 -306 114 -60 114 -257 l -25 -317 b 183 69 113 -282 183 -193 l 183 654 l 46 631 l 46 619 b 114 544 107 619 114 592 z m 182 821 b 135 869 182 849 160 869 b 89 821 108 869 89 849 b 135 775 89 796 108 775 b 182 821 160 775 182 796 z "},"k":{"ha":649,"x_min":0,"x_max":0,"o":"m 528 54 l 258 342 b 643 631 522 606 539 631 l 643 642 l 354 642 l 354 631 b 331 446 544 631 331 446 l 200 317 l 333 164 b 576 0 450 33 481 0 l 628 0 l 628 13 b 528 54 588 13 564 17 z m 153 1014 l 14 990 l 14 978 b 83 910 72 978 83 958 l 83 89 b 28 13 83 18 81 28 l 28 0 l 210 0 l 210 13 b 153 89 160 25 153 13 z "},"l":{"ha":274,"x_min":0,"x_max":0,"o":"m 171 1014 l 32 990 l 32 978 b 101 910 90 978 101 958 l 101 89 b 46 13 101 18 99 28 l 46 0 l 228 0 l 228 13 b 171 89 178 25 171 13 z "},"m":{"ha":974,"x_min":0,"x_max":0,"o":"m 892 89 l 892 422 b 703 654 892 589 821 654 b 518 504 613 654 540 585 b 338 654 499 611 435 654 b 154 513 250 654 178 590 l 154 654 l 15 631 l 15 619 b 85 550 74 619 85 599 l 85 89 b 29 13 85 18 82 28 l 29 0 l 211 0 l 211 13 b 154 89 161 25 154 13 l 154 492 b 306 617 174 536 217 617 b 457 417 421 617 457 539 l 457 89 b 401 11 457 18 454 26 l 401 0 l 582 0 l 582 11 b 525 89 533 24 525 13 l 525 422 b 521 490 525 447 524 471 b 672 617 539 535 583 617 b 824 417 786 617 824 539 l 824 89 b 768 11 824 18 821 26 l 768 0 l 949 0 l 949 11 b 892 89 900 24 892 13 z "},"n":{"ha":650,"x_min":0,"x_max":0,"o":"m 560 89 l 560 422 b 351 654 560 589 468 654 b 154 513 264 654 181 589 l 154 654 l 15 631 l 15 619 b 85 550 74 619 85 599 l 85 89 b 29 13 85 18 82 28 l 29 0 l 211 0 l 211 13 b 154 89 161 25 154 13 l 154 492 b 319 617 176 536 231 617 b 492 417 433 617 492 539 l 492 89 b 436 11 492 18 489 26 l 436 0 l 617 0 l 617 11 b 560 89 568 24 560 13 z "},"o":{"ha":742,"x_min":0,"x_max":0,"o":"m 367 654 b 57 321 156 654 57 504 b 367 -12 57 139 156 -12 b 676 321 579 -12 676 139 b 367 654 676 504 579 654 z m 367 0 b 136 321 254 0 136 69 b 367 642 136 572 254 642 b 596 321 479 642 596 572 b 367 0 596 69 479 0 z "},"p":{"ha":719,"x_min":0,"x_max":0,"o":"m 338 0 b 163 181 233 0 167 74 l 163 449 b 338 622 168 556 235 622 b 560 289 465 622 560 506 b 338 0 560 54 421 0 z m 364 654 b 163 551 288 654 203 617 l 163 654 l 24 631 l 24 619 b 93 550 82 619 93 599 l 93 -279 b 38 -356 93 -350 90 -340 l 38 -368 l 219 -368 l 219 -356 b 163 -279 169 -343 163 -356 l 163 50 b 343 -12 208 13 267 -12 b 651 315 519 -12 651 107 b 364 654 651 482 578 654 z "},"q":{"ha":701,"x_min":0,"x_max":0,"o":"m 538 163 b 368 19 528 75 451 19 b 146 354 239 19 146 138 b 368 642 146 589 285 642 b 538 490 453 642 528 576 z m 607 -279 l 607 636 b 542 593 607 658 557 628 b 363 654 494 631 435 654 b 54 328 186 654 54 536 b 342 -12 54 161 128 -12 b 538 81 414 -12 496 21 l 538 -279 b 482 -356 538 -350 535 -340 l 482 -368 l 664 -368 l 664 -356 b 607 -279 614 -343 607 -356 z "},"r":{"ha":444,"x_min":0,"x_max":0,"o":"m 368 653 b 158 521 289 663 188 593 l 158 654 l 19 631 l 19 619 b 89 551 78 619 89 600 l 89 89 b 33 13 89 18 86 28 l 33 0 l 215 0 l 215 13 b 158 89 165 25 158 13 l 158 493 b 314 617 194 596 326 647 b 314 578 310 604 310 590 b 385 549 326 550 358 538 b 414 618 413 561 425 590 b 368 653 404 638 388 650 z "},"s":{"ha":550,"x_min":0,"x_max":0,"o":"m 356 325 l 215 413 b 249 642 94 489 76 642 b 463 425 429 642 463 539 l 474 425 l 474 608 b 249 654 474 608 408 654 b 75 565 106 654 75 565 b 196 325 39 475 65 421 l 336 240 b 300 0 442 171 496 0 b 76 238 100 0 76 108 l 65 238 l 65 35 b 300 -12 65 35 132 -12 b 458 50 415 -12 458 50 b 356 325 522 140 483 246 z "},"t":{"ha":389,"x_min":0,"x_max":0,"o":"m 275 25 b 167 204 213 25 167 61 l 167 629 l 328 629 l 331 642 l 167 642 l 167 860 l 97 851 l 97 642 l 25 642 l 26 629 l 97 629 l 97 200 b 247 -12 97 32 156 -12 b 368 92 315 -12 357 35 l 360 94 b 275 25 350 57 315 25 z "},"u":{"ha":669,"x_min":0,"x_max":0,"o":"m 574 104 l 574 654 l 439 629 l 439 618 b 504 532 504 618 504 617 l 504 147 b 338 24 485 86 436 24 b 168 199 257 24 168 67 l 168 654 l 24 629 l 24 618 b 101 522 101 618 101 618 l 101 194 b 322 -12 101 15 232 -12 b 504 118 422 -12 489 50 l 504 4 b 533 -11 504 4 503 -18 l 644 7 l 644 18 b 574 104 586 25 574 38 z "},"v":{"ha":713,"x_min":0,"x_max":0,"o":"m 447 642 l 447 631 b 538 469 600 631 538 469 l 401 85 l 193 542 b 253 631 193 542 146 631 l 253 642 l 4 642 l 4 631 b 103 564 26 628 68 629 b 372 -12 103 564 126 521 l 379 -12 l 558 489 b 713 631 615 629 639 631 l 713 642 z "},"w":{"ha":944,"x_min":0,"x_max":0,"o":"m 718 642 l 718 631 b 807 513 843 631 807 513 l 674 93 l 497 547 b 550 631 497 547 458 631 l 550 642 l 344 642 l 344 631 b 425 544 364 628 397 617 b 474 425 425 544 431 532 l 364 93 l 185 554 b 228 631 185 554 153 631 l 228 642 l 22 642 l 22 631 b 115 544 42 628 86 617 b 336 -12 115 544 126 521 l 343 -12 l 481 406 b 647 -12 513 324 565 193 l 653 -12 l 817 503 b 939 631 854 621 894 631 l 939 642 z "},"x":{"ha":686,"x_min":0,"x_max":0,"o":"m 536 96 l 363 346 l 408 413 b 674 631 551 635 596 631 l 674 642 l 396 642 l 396 631 b 399 421 539 631 490 567 l 356 357 l 240 524 b 249 631 181 610 214 631 l 249 642 l 17 642 l 17 631 b 143 543 68 631 85 617 l 318 292 l 274 226 b 4 11 119 -1 64 11 l 4 0 l 254 0 l 254 11 b 283 219 149 11 161 35 l 326 282 l 447 110 b 446 11 447 110 522 11 l 446 0 l 668 0 l 668 11 b 536 96 642 14 592 13 z "},"y":{"ha":731,"x_min":0,"x_max":0,"o":"m 444 642 l 444 631 b 524 406 606 633 524 406 l 413 88 l 215 514 b 263 631 215 514 156 631 l 263 642 l 15 642 l 15 631 b 124 544 38 628 90 617 b 381 0 124 544 135 533 l 308 -208 b 260 -260 292 -254 265 -283 b 233 -229 257 -249 247 -235 b 167 -256 208 -218 179 -229 b 193 -322 157 -281 167 -310 b 251 -315 211 -331 238 -326 b 318 -212 265 -304 297 -278 l 536 403 b 710 631 610 610 642 631 l 710 642 z "},"z":{"ha":568,"x_min":0,"x_max":0,"o":"m 486 642 l 49 642 l 42 458 l 56 458 b 401 631 67 628 215 631 l 44 0 l 475 0 l 488 211 l 474 211 b 138 11 456 18 346 11 z "},"{":{"ha":439,"x_min":0,"x_max":0,"o":"m 247 4 l 247 204 b 119 389 247 356 146 389 b 247 589 146 389 247 436 l 247 789 b 358 1015 247 933 301 994 l 357 1021 b 178 789 247 1006 178 949 l 178 626 b 68 392 178 407 125 413 l 68 386 b 178 167 125 365 178 372 l 178 4 b 357 -228 178 -156 247 -212 l 358 -222 b 247 4 301 -203 247 -140 z "},"|":{"ha":269,"x_min":0,"x_max":0,"o":"m 106 -228 l 161 -228 l 161 1021 l 106 1021 z "},"}":{"ha":436,"x_min":0,"x_max":0,"o":"m 72 -224 l 74 -229 b 253 3 183 -214 253 -157 l 253 165 b 363 385 253 371 306 364 l 363 390 b 253 625 306 411 253 406 l 253 788 b 74 1019 253 947 183 1004 l 72 1014 b 183 788 129 993 183 932 l 183 588 b 311 388 183 435 285 388 b 183 203 285 388 183 354 l 183 3 b 72 -224 183 -142 129 -204 z "},"~":{"ha":783,"x_min":0,"x_max":0,"o":"m 449 308 b 693 426 449 308 624 243 l 688 428 b 483 368 656 351 526 350 l 331 428 b 88 310 331 428 156 490 l 92 308 b 297 368 131 393 253 385 z "},"":{"ha":0,"x_min":0,"x_max":0,"o":""}," ":{"ha":326,"x_min":0,"x_max":0,"o":""},"¡":{"ha":347,"x_min":0,"x_max":0,"o":"m 151 565 l 135 -243 l 211 -243 l 194 565 z m 115 732 b 174 674 115 699 142 674 b 233 732 207 674 233 699 b 174 790 233 764 207 790 b 115 732 142 790 115 764 z "},"¢":{"ha":732,"x_min":0,"x_max":0,"o":"m 389 19 b 186 322 293 33 186 119 b 389 642 186 565 315 631 z m 629 176 b 417 18 611 110 549 18 l 417 642 b 581 589 546 642 594 585 b 546 586 574 592 560 592 b 526 522 522 575 514 547 b 590 504 536 500 568 494 b 615 547 607 514 615 529 b 417 654 615 571 590 654 l 417 824 l 389 824 l 389 654 b 103 317 217 639 103 488 b 389 -12 103 78 263 -7 l 389 -164 l 417 -164 l 417 -12 b 639 175 572 -6 628 108 z "},"£":{"ha":864,"x_min":0,"x_max":0,"o":"m 192 0 b 60 92 174 0 83 0 b 283 208 43 153 138 269 b 417 128 324 192 371 164 b 192 0 375 42 286 0 z m 49 92 b 193 -12 79 -6 179 -12 b 440 113 286 -12 376 8 b 640 -12 528 43 583 -12 b 797 165 696 -12 799 24 l 782 165 b 625 72 782 69 688 46 b 469 164 625 72 563 101 b 450 431 493 225 513 329 l 400 504 l 633 504 l 633 518 l 390 518 b 550 1000 147 907 344 1076 b 608 933 610 978 622 931 b 568 924 594 936 581 933 b 556 844 542 906 536 869 b 633 832 574 819 610 813 b 657 886 651 844 660 868 b 557 1011 651 910 633 978 b 294 518 358 1101 67 924 l 165 518 l 165 504 l 303 504 b 376 392 335 458 354 426 b 433 186 433 303 446 254 b 342 240 397 214 342 240 b 49 92 113 336 28 156 z "},"¤":{"ha":693,"x_min":0,"x_max":0,"o":"m 649 479 b 576 676 649 551 624 621 l 664 764 l 631 799 l 542 711 b 344 783 488 758 418 783 b 147 711 271 783 203 758 l 60 799 l 25 764 l 113 676 b 40 479 65 621 40 551 b 113 282 40 406 65 336 l 25 193 l 60 160 l 147 247 b 344 174 203 200 271 174 b 542 247 418 174 488 200 l 631 160 l 664 193 l 576 282 b 649 479 624 336 649 406 z m 164 297 b 164 660 64 397 64 560 b 344 735 213 708 276 735 b 525 660 413 735 478 708 b 600 479 574 611 600 547 b 525 297 600 411 574 346 b 344 222 478 250 413 222 b 164 297 276 222 213 250 z "},"¥":{"ha":747,"x_min":0,"x_max":0,"o":"m 482 978 l 482 967 b 528 678 658 967 622 869 l 411 443 l 200 810 b 232 968 106 969 185 968 l 232 978 l -37 978 l -37 968 b 104 858 19 963 42 967 b 347 433 104 858 151 781 l 81 433 l 81 415 l 357 415 l 357 415 l 357 325 l 81 325 l 81 307 l 357 307 l 357 143 b 267 13 357 13 325 13 l 267 0 l 507 0 l 507 13 b 417 143 449 13 417 13 l 417 307 l 664 307 l 664 325 l 417 325 l 417 415 l 664 415 l 664 433 l 421 433 l 536 664 b 781 967 689 969 697 967 l 781 978 z "},"¦":{"ha":235,"x_min":0,"x_max":0,"o":"m 151 1021 l 99 1021 l 99 500 l 151 500 z m 151 258 l 99 258 l 99 -265 l 151 -265 z "},"§":{"ha":715,"x_min":0,"x_max":0,"o":"m 464 47 b 496 507 707 201 657 390 l 315 635 b 185 856 201 726 172 768 b 406 986 200 964 297 997 b 503 922 467 979 524 918 b 465 911 490 925 476 919 b 456 838 443 893 439 861 b 532 828 475 814 510 810 b 550 879 547 840 554 863 b 388 1000 538 938 460 997 b 140 824 318 1003 161 992 b 247 599 125 710 171 664 b 215 138 4 444 54 256 l 396 10 b 525 -211 510 -75 539 -121 b 311 -340 511 -317 394 -351 b 207 -278 251 -332 186 -272 b 246 -265 221 -281 233 -275 b 254 -190 269 -249 272 -214 b 179 -182 235 -168 201 -164 b 160 -235 164 -194 156 -217 b 318 -354 174 -290 250 -351 b 571 -179 388 -358 549 -347 b 464 47 586 -64 540 -17 z m 240 208 b 257 590 121 294 50 458 b 471 438 257 590 397 493 b 454 56 592 351 661 186 b 240 208 454 56 313 157 z "},"¨":{"ha":264,"x_min":0,"x_max":0,"o":"m 88 896 b 40 944 88 924 65 944 b -6 896 14 944 -6 924 b 40 850 -6 871 14 850 b 88 896 65 850 88 871 z m 269 896 b 222 944 269 924 247 944 b 176 896 196 944 176 924 b 222 850 176 871 196 850 b 269 896 247 850 269 871 z "},"©":{"ha":1081,"x_min":0,"x_max":0,"o":"m 540 1008 b 42 513 263 1008 42 788 b 540 17 42 238 263 17 b 1039 513 815 17 1039 238 b 540 1008 1039 788 815 1008 z m 540 50 b 76 513 285 50 76 257 b 540 976 76 768 285 976 b 1003 513 793 976 1003 768 b 540 50 1003 257 793 50 z m 713 385 b 553 229 713 231 585 229 b 342 500 488 229 342 235 b 553 768 342 757 476 768 b 713 614 589 768 713 767 l 719 614 l 726 733 b 553 781 678 774 633 781 b 281 500 394 781 281 694 b 553 217 281 307 394 217 b 726 265 636 217 668 226 l 719 385 z "},"ª":{"ha":374,"x_min":0,"x_max":0,"o":"m 210 707 b 131 651 201 690 182 651 b 63 718 89 651 63 675 b 210 817 63 768 118 790 z m 279 654 b 249 694 249 654 249 694 l 249 833 b 169 979 249 921 232 979 b 103 965 169 979 129 979 b 49 913 65 944 51 921 b 53 885 44 903 47 892 b 90 882 63 872 82 874 b 93 918 101 893 101 907 b 75 928 88 924 82 928 b 113 958 71 928 79 943 b 210 868 178 986 210 943 l 210 829 b 26 706 88 797 26 772 b 108 631 26 629 108 631 b 210 683 158 631 196 647 b 260 631 210 631 260 631 b 314 675 290 631 313 651 l 303 679 b 279 654 299 654 279 654 z "},"«":{"ha":847,"x_min":0,"x_max":0,"o":"m 442 701 l 121 369 l 442 46 l 442 64 l 199 369 l 442 683 z m 725 701 l 404 369 l 725 46 l 725 64 l 483 369 l 725 683 z "},"¬":{"ha":874,"x_min":0,"x_max":0,"o":"m 57 521 l 57 468 l 756 468 l 756 110 l 813 110 l 813 521 z "},"­":{"ha":617,"x_min":0,"x_max":0,"o":"m 526 324 l 526 383 l 89 383 l 89 324 z "},"®":{"ha":1088,"x_min":0,"x_max":0,"o":"m 540 1008 b 42 513 263 1008 42 788 b 540 17 42 238 263 17 b 1039 513 815 17 1039 238 b 540 1008 1039 788 815 1008 z m 540 50 b 76 513 285 50 76 257 b 540 976 76 768 285 976 b 1003 513 793 976 1003 768 b 540 50 1003 257 793 50 z m 699 299 b 574 482 678 482 606 478 b 697 629 632 482 697 513 b 479 778 697 758 635 778 l 376 778 l 376 765 b 417 715 410 765 417 764 l 417 322 b 376 242 417 244 410 242 l 376 229 l 499 229 l 499 242 b 456 303 465 242 456 247 l 456 478 l 492 478 b 636 400 492 478 619 478 b 721 229 672 231 660 229 l 775 229 l 775 242 b 699 299 756 242 706 242 z m 479 490 l 456 490 l 456 765 l 479 765 b 653 629 571 765 653 765 b 479 490 653 488 581 490 z "},"¯":{"ha":500,"x_min":0,"x_max":0,"o":"m 524 838 l 524 883 l -22 883 l -22 838 z "},"°":{"ha":531,"x_min":0,"x_max":0,"o":"m 261 664 b 440 843 358 664 440 744 b 261 1024 440 943 358 1024 b 81 843 161 1024 81 943 b 261 664 81 744 161 664 z m 261 990 b 407 843 342 990 407 924 b 261 697 407 763 342 697 b 113 843 179 697 113 763 b 261 990 113 924 179 990 z "},"±":{"ha":844,"x_min":0,"x_max":0,"o":"m 447 496 l 447 743 l 388 743 l 388 496 l 57 496 l 57 438 l 388 438 l 388 194 l 447 194 l 447 438 l 778 438 l 778 496 z m 57 0 l 778 0 l 778 58 l 57 58 z "},"²":{"ha":344,"x_min":0,"x_max":0,"o":"m 272 592 b 219 557 258 568 240 557 l 79 557 b 192 729 79 557 163 686 b 267 872 240 797 267 832 b 157 978 267 931 221 978 b 44 860 157 978 43 985 l 60 860 b 179 738 63 1014 342 967 l 43 526 l 267 526 l 285 592 z "},"³":{"ha":356,"x_min":0,"x_max":0,"o":"m 301 644 b 193 758 301 697 267 749 b 174 978 325 789 290 978 b 50 875 161 978 50 978 l 64 875 b 206 935 64 940 153 981 b 140 758 279 871 228 758 l 140 749 b 263 643 228 749 260 696 b 158 532 269 549 224 532 b 88 549 107 532 83 549 b 97 556 89 549 93 550 b 93 588 104 565 103 579 b 61 583 83 594 71 593 b 58 558 57 579 54 567 b 158 521 68 544 103 521 b 301 644 214 521 301 536 z "},"´":{"ha":471,"x_min":0,"x_max":0,"o":"m 114 775 l 124 775 l 438 978 l 356 997 z "},"µ":{"ha":671,"x_min":0,"x_max":0,"o":"m 643 18 b 572 104 585 25 572 38 l 572 654 l 438 629 l 438 618 b 503 532 503 618 503 617 l 503 147 b 336 24 483 86 435 24 b 167 179 260 24 175 63 l 167 654 l 22 629 l 22 618 b 100 522 100 618 100 618 l 100 -351 b 128 -367 100 -351 97 -374 l 238 -349 l 238 -337 b 167 -251 179 -331 167 -318 l 167 31 b 503 118 319 -65 483 18 l 503 4 b 532 -11 503 4 501 -18 l 643 7 l 643 18 z "},"¶":{"ha":811,"x_min":0,"x_max":0,"o":"m 714 964 l 714 978 l 533 978 l 533 -368 l 704 -368 l 704 -356 b 600 -210 638 -356 600 -318 l 600 836 b 714 964 600 933 644 964 z m 400 978 l 399 978 b 51 694 232 976 51 924 b 399 417 51 464 210 417 l 399 -261 b 267 -356 399 -331 333 -356 l 267 -368 l 463 -368 l 463 978 z "},"·":{"ha":297,"x_min":0,"x_max":0,"o":"m 203 415 b 156 463 203 442 181 463 b 108 415 129 463 108 442 b 156 369 108 390 129 369 b 203 415 181 369 203 390 z "},"¸":{"ha":358,"x_min":0,"x_max":0,"o":"m 142 -6 l 101 -124 b 258 -219 231 -90 258 -172 b 163 -310 258 -282 214 -310 b 106 -293 121 -311 101 -293 b 122 -283 111 -293 117 -290 b 114 -250 129 -272 126 -257 b 81 -256 103 -242 88 -244 b 79 -282 75 -264 75 -275 b 163 -314 83 -289 103 -315 b 301 -206 210 -314 288 -306 b 122 -97 310 -135 253 -68 l 156 -6 z "},"¹":{"ha":261,"x_min":0,"x_max":0,"o":"m 142 589 l 142 979 l 121 979 l 49 913 l 56 903 b 110 900 97 933 110 935 l 110 589 b 65 540 110 543 92 540 l 65 528 l 186 528 l 186 540 b 142 589 164 540 142 540 z "},"º":{"ha":447,"x_min":0,"x_max":0,"o":"m 221 982 b 47 744 74 982 47 843 b 221 518 47 650 74 518 b 394 744 367 518 394 650 b 221 982 394 843 367 982 z m 221 531 b 88 744 163 531 88 563 b 221 969 88 931 161 969 b 354 744 279 969 354 931 b 221 531 354 563 282 531 z "},"»":{"ha":842,"x_min":0,"x_max":0,"o":"m 400 683 l 643 369 l 400 64 l 400 46 l 721 369 l 400 701 z m 117 683 l 358 369 l 117 64 l 117 46 l 438 369 l 117 701 z "},"¼":{"ha":868,"x_min":0,"x_max":0,"o":"m 799 986 l 25 51 l 72 51 l 847 986 z m 258 589 l 258 1036 l 235 1036 l 153 960 l 160 950 b 222 950 207 986 222 990 l 222 589 b 172 533 222 536 201 533 l 172 521 l 310 521 l 310 533 b 258 589 285 533 258 533 z m 736 153 l 736 178 l 672 178 l 672 508 l 651 508 l 415 161 l 415 153 l 633 153 l 633 72 b 588 13 633 15 617 13 l 588 0 l 719 0 l 719 13 b 672 75 689 13 672 14 l 672 153 z m 633 178 l 471 178 b 460 199 446 178 446 178 l 633 458 z "},"½":{"ha":868,"x_min":0,"x_max":0,"o":"m 799 986 l 25 51 l 72 51 l 847 986 z m 815 75 b 746 35 799 47 771 35 l 583 35 b 713 232 583 35 679 183 b 800 397 769 311 800 350 b 675 518 800 464 749 518 b 546 382 675 518 544 526 l 556 381 b 700 242 558 563 888 506 l 544 0 l 800 0 l 821 75 z m 258 589 l 258 1036 l 235 1036 l 153 960 l 160 950 b 222 950 207 986 222 990 l 222 589 b 172 533 222 536 201 533 l 172 521 l 310 521 l 310 533 b 258 589 285 533 258 533 z "},"¾":{"ha":865,"x_min":0,"x_max":0,"o":"m 799 986 l 25 51 l 72 51 l 847 986 z m 363 660 b 239 788 363 719 322 776 b 217 1036 389 822 349 1036 b 78 921 203 1036 78 1036 l 93 921 b 253 988 93 994 193 1039 b 179 788 336 915 279 788 l 179 778 b 318 658 279 778 315 717 b 200 532 326 551 274 532 b 119 551 142 532 115 551 b 131 558 122 551 126 553 b 126 594 139 569 138 585 b 90 590 115 603 101 601 b 88 563 85 585 82 571 b 200 519 97 546 138 519 b 363 660 263 519 363 538 z m 736 153 l 736 178 l 672 178 l 672 508 l 651 508 l 415 161 l 415 153 l 633 153 l 633 72 b 588 13 633 15 617 13 l 588 0 l 719 0 l 719 13 b 672 75 689 13 672 14 l 672 153 z m 633 178 l 471 178 b 460 199 446 178 446 178 l 633 458 z "},"¿":{"ha":800,"x_min":0,"x_max":0,"o":"m 140 -107 b 585 -329 153 -329 361 -429 b 686 -224 649 -301 682 -243 b 681 -169 692 -207 693 -186 b 607 -156 664 -146 631 -139 b 594 -229 583 -172 578 -206 b 626 -250 603 -242 614 -250 b 578 -321 646 -251 651 -293 b 236 -101 457 -368 257 -365 b 389 203 218 96 331 153 b 460 418 478 276 468 364 l 440 415 b 363 221 447 332 429 258 b 140 -107 289 179 132 94 z m 501 596 b 443 654 501 629 475 654 b 383 596 410 654 383 629 b 443 538 383 564 410 538 b 501 596 475 538 501 564 z "},"À":{"ha":925,"x_min":0,"x_max":0,"o":"m 386 1243 l 304 1224 l 618 1021 l 628 1021 z m 794 138 l 463 978 l 457 978 l 232 347 b 24 13 128 36 93 13 l 24 0 l 301 0 l 301 13 b 246 319 135 13 169 97 l 636 319 l 690 178 b 669 13 756 22 711 13 l 669 0 l 906 0 l 906 13 b 794 138 864 15 839 26 z m 250 332 l 435 847 l 632 332 z "},"Á":{"ha":925,"x_min":0,"x_max":0,"o":"m 303 1021 l 313 1021 l 626 1224 l 544 1243 z m 794 138 l 463 978 l 457 978 l 232 347 b 24 13 128 36 93 13 l 24 0 l 301 0 l 301 13 b 246 319 135 13 169 97 l 636 319 l 690 178 b 669 13 756 22 711 13 l 669 0 l 906 0 l 906 13 b 794 138 864 15 839 26 z m 250 332 l 435 847 l 632 332 z "},"Â":{"ha":925,"x_min":0,"x_max":0,"o":"m 626 1021 l 642 1021 l 461 1282 l 281 1021 l 296 1021 l 461 1197 z m 794 138 l 463 978 l 457 978 l 232 347 b 24 13 128 36 93 13 l 24 0 l 301 0 l 301 13 b 246 319 135 13 169 97 l 636 319 l 690 178 b 669 13 756 22 711 13 l 669 0 l 906 0 l 906 13 b 794 138 864 15 839 26 z m 250 332 l 435 847 l 632 332 z "},"Ã":{"ha":925,"x_min":0,"x_max":0,"o":"m 521 1089 b 765 1207 521 1089 696 1024 l 760 1208 b 556 1149 728 1132 599 1131 l 403 1208 b 160 1090 403 1208 228 1271 l 164 1089 b 369 1149 203 1174 325 1165 z m 794 138 l 463 978 l 457 978 l 232 347 b 24 13 128 36 93 13 l 24 0 l 301 0 l 301 13 b 246 319 135 13 169 97 l 636 319 l 690 178 b 669 13 756 22 711 13 l 669 0 l 906 0 l 906 13 b 794 138 864 15 839 26 z m 250 332 l 435 847 l 632 332 z "},"Ä":{"ha":925,"x_min":0,"x_max":0,"o":"m 415 1140 b 368 1189 415 1168 393 1189 b 322 1140 342 1189 322 1168 b 368 1094 322 1115 342 1094 b 415 1140 393 1094 415 1115 z m 597 1140 b 550 1189 597 1168 575 1189 b 504 1140 524 1189 504 1168 b 550 1094 504 1115 524 1094 b 597 1140 575 1094 597 1115 z m 794 138 l 463 978 l 457 978 l 232 347 b 24 13 128 36 93 13 l 24 0 l 301 0 l 301 13 b 246 319 135 13 169 97 l 636 319 l 690 178 b 669 13 756 22 711 13 l 669 0 l 906 0 l 906 13 b 794 138 864 15 839 26 z m 250 332 l 435 847 l 632 332 z "},"Å":{"ha":925,"x_min":0,"x_max":0,"o":"m 460 1094 b 588 1222 531 1094 588 1153 b 460 1351 588 1293 531 1351 b 332 1222 389 1351 332 1293 b 460 1094 332 1153 389 1094 z m 460 1319 b 556 1222 513 1319 556 1276 b 460 1126 556 1169 513 1126 b 364 1222 406 1126 364 1169 b 460 1319 364 1276 406 1319 z m 794 138 l 463 978 l 457 978 l 232 347 b 24 13 128 36 93 13 l 24 0 l 301 0 l 301 13 b 246 319 135 13 169 97 l 636 319 l 690 178 b 669 13 756 22 711 13 l 669 0 l 906 0 l 906 13 b 794 138 864 15 839 26 z m 250 332 l 435 847 l 632 332 z "},"Æ":{"ha":1238,"x_min":0,"x_max":0,"o":"m 314 332 l 636 914 b 636 874 636 906 636 883 l 636 332 z m 1142 275 b 771 13 1142 0 1018 13 l 721 13 l 721 488 l 824 488 b 983 351 894 488 983 493 l 996 351 l 996 636 l 983 636 b 824 500 983 496 899 500 l 721 500 l 721 965 l 794 965 b 1124 742 1019 965 1124 961 l 1136 742 l 1136 978 l 568 978 l 568 965 b 632 936 608 965 625 964 l 306 347 b 17 13 136 36 86 13 l 17 0 l 294 0 l 294 13 b 307 319 128 13 183 97 l 636 319 l 636 135 b 568 13 636 40 626 13 l 568 0 l 1154 0 l 1154 275 z "},"Ç":{"ha":936,"x_min":0,"x_max":0,"o":"m 821 285 b 538 0 821 13 594 0 b 161 489 406 0 161 18 b 538 978 161 947 401 978 b 821 694 603 978 821 965 l 833 694 l 846 906 b 538 990 758 976 681 990 b 56 489 258 990 56 838 b 517 -12 56 156 249 -4 l 525 -12 l 489 -118 b 646 -214 618 -85 646 -167 b 550 -304 646 -276 601 -304 b 493 -287 508 -306 489 -287 b 510 -278 499 -287 504 -285 b 501 -244 517 -267 514 -251 b 468 -250 490 -236 475 -239 b 467 -276 463 -258 463 -269 b 550 -308 471 -283 490 -310 b 689 -200 597 -308 675 -300 b 510 -92 697 -129 640 -62 l 539 -12 l 540 -12 b 846 74 686 -12 743 6 l 833 285 z "},"È":{"ha":736,"x_min":0,"x_max":0,"o":"m 294 1243 l 213 1224 l 526 1021 l 536 1021 z m 640 275 b 269 13 640 0 517 13 l 192 13 l 192 488 l 322 488 b 482 351 393 488 482 486 l 494 351 l 494 636 l 482 636 b 322 500 482 501 397 500 l 192 500 l 192 965 l 293 965 b 622 742 518 965 622 961 l 635 742 l 635 978 l 39 978 l 39 965 b 107 874 100 965 107 960 l 107 135 b 39 13 107 40 97 13 l 39 0 l 653 0 l 653 275 z "},"É":{"ha":736,"x_min":0,"x_max":0,"o":"m 190 1021 l 200 1021 l 514 1224 l 432 1243 z m 640 275 b 269 13 640 0 517 13 l 192 13 l 192 488 l 322 488 b 482 351 393 488 482 486 l 494 351 l 494 636 l 482 636 b 322 500 482 501 397 500 l 192 500 l 192 965 l 293 965 b 622 742 518 965 622 961 l 635 742 l 635 978 l 39 978 l 39 965 b 107 874 100 965 107 960 l 107 135 b 39 13 107 40 97 13 l 39 0 l 653 0 l 653 275 z "},"Ê":{"ha":736,"x_min":0,"x_max":0,"o":"m 525 1021 l 540 1021 l 360 1282 l 179 1021 l 194 1021 l 360 1197 z m 640 275 b 269 13 640 0 517 13 l 192 13 l 192 488 l 322 488 b 482 351 393 488 482 486 l 494 351 l 494 636 l 482 636 b 322 500 482 501 397 500 l 192 500 l 192 965 l 293 965 b 622 742 518 965 622 961 l 635 742 l 635 978 l 39 978 l 39 965 b 107 874 100 965 107 960 l 107 135 b 39 13 107 40 97 13 l 39 0 l 653 0 l 653 275 z "},"Ë":{"ha":736,"x_min":0,"x_max":0,"o":"m 311 1140 b 264 1189 311 1168 289 1189 b 218 1140 238 1189 218 1168 b 264 1094 218 1115 238 1094 b 311 1140 289 1094 311 1115 z m 493 1140 b 446 1189 493 1168 471 1189 b 400 1140 419 1189 400 1168 b 446 1094 400 1115 419 1094 b 493 1140 471 1094 493 1115 z m 640 275 b 269 13 640 0 517 13 l 192 13 l 192 488 l 322 488 b 482 351 393 488 482 486 l 494 351 l 494 636 l 482 636 b 322 500 482 501 397 500 l 192 500 l 192 965 l 293 965 b 622 742 518 965 622 961 l 635 742 l 635 978 l 39 978 l 39 965 b 107 874 100 965 107 960 l 107 135 b 39 13 107 40 97 13 l 39 0 l 653 0 l 653 275 z "},"Ì":{"ha":339,"x_min":0,"x_max":0,"o":"m 54 978 l 54 967 b 131 871 115 967 131 957 l 131 129 b 54 13 131 35 114 13 l 54 0 l 290 0 l 290 13 b 214 129 232 13 214 35 l 214 871 b 290 967 214 957 231 967 l 290 978 z m 92 1243 l 10 1224 l 324 1021 l 333 1021 z "},"Í":{"ha":339,"x_min":0,"x_max":0,"o":"m 54 978 l 54 967 b 131 871 115 967 131 957 l 131 129 b 54 13 131 35 114 13 l 54 0 l 290 0 l 290 13 b 214 129 232 13 214 35 l 214 871 b 290 967 214 957 231 967 l 290 978 z m 0 1021 l 10 1021 l 324 1224 l 242 1243 z "},"Î":{"ha":339,"x_min":0,"x_max":0,"o":"m 54 978 l 54 967 b 131 871 115 967 131 957 l 131 129 b 54 13 131 35 114 13 l 54 0 l 290 0 l 290 13 b 214 129 232 13 214 35 l 214 871 b 290 967 214 957 231 967 l 290 978 z m 333 1021 l 349 1021 l 168 1282 l -12 1021 l 3 1021 l 168 1197 z "},"Ï":{"ha":339,"x_min":0,"x_max":0,"o":"m 54 978 l 54 967 b 131 871 115 967 131 957 l 131 129 b 54 13 131 35 114 13 l 54 0 l 290 0 l 290 13 b 214 129 232 13 214 35 l 214 871 b 290 967 214 957 231 967 l 290 978 z m 128 1140 b 81 1189 128 1168 106 1189 b 35 1140 54 1189 35 1168 b 81 1094 35 1115 54 1094 b 128 1140 106 1094 128 1115 z m 310 1140 b 263 1189 310 1168 288 1189 b 217 1140 236 1189 217 1168 b 263 1094 217 1115 236 1094 b 310 1140 288 1094 310 1115 z "},"Ð":{"ha":878,"x_min":0,"x_max":0,"o":"m 292 978 l 61 978 l 61 967 b 144 842 122 967 144 928 l 144 503 l -7 503 l -7 474 l 144 474 l 144 140 b 61 13 144 46 121 13 l 61 0 l 292 0 b 813 489 568 0 813 54 b 292 978 813 896 568 978 z m 292 13 l 231 13 l 231 474 l 425 474 l 425 503 l 231 503 l 231 967 l 292 967 b 721 489 461 967 721 953 b 292 13 721 -1 454 13 z "},"Ñ":{"ha":1038,"x_min":0,"x_max":0,"o":"m 574 1089 b 818 1207 574 1089 749 1024 l 813 1208 b 608 1149 781 1132 651 1131 l 456 1208 b 213 1090 456 1208 281 1271 l 217 1089 b 422 1149 256 1174 378 1165 z m 649 978 l 649 967 b 822 639 822 967 822 897 l 822 118 l 181 978 l 7 978 l 7 967 b 172 856 43 964 83 967 l 232 776 l 232 340 b 39 13 232 90 231 13 l 39 0 l 419 0 l 419 13 b 244 340 246 13 244 94 l 244 760 l 819 0 l 819 0 l 835 0 l 835 639 b 1021 967 835 897 829 967 l 1021 978 z "},"Ò":{"ha":969,"x_min":0,"x_max":0,"o":"m 482 0 b 139 482 317 0 139 100 b 482 978 139 863 317 978 b 822 482 646 978 822 863 b 482 0 822 100 646 0 z m 482 990 b 58 482 176 990 58 757 b 482 -12 58 206 176 -12 b 906 482 788 -12 906 206 b 482 990 906 757 788 990 z m 411 1243 l 329 1224 l 643 1021 l 653 1021 z "},"Ó":{"ha":969,"x_min":0,"x_max":0,"o":"m 482 0 b 139 482 317 0 139 100 b 482 978 139 863 317 978 b 822 482 646 978 822 863 b 482 0 822 100 646 0 z m 482 990 b 58 482 176 990 58 757 b 482 -12 58 206 176 -12 b 906 482 788 -12 906 206 b 482 990 906 757 788 990 z m 332 1021 l 342 1021 l 656 1224 l 574 1243 z "},"Ô":{"ha":969,"x_min":0,"x_max":0,"o":"m 482 0 b 139 482 317 0 139 100 b 482 978 139 863 317 978 b 822 482 646 978 822 863 b 482 0 822 100 646 0 z m 482 990 b 58 482 176 990 58 757 b 482 -12 58 206 176 -12 b 906 482 788 -12 906 206 b 482 990 906 757 788 990 z m 646 1021 l 661 1021 l 481 1282 l 300 1021 l 315 1021 l 481 1197 z "},"Õ":{"ha":969,"x_min":0,"x_max":0,"o":"m 482 0 b 139 482 317 0 139 100 b 482 978 139 863 317 978 b 822 482 646 978 822 863 b 482 0 822 100 646 0 z m 482 990 b 58 482 176 990 58 757 b 482 -12 58 206 176 -12 b 906 482 788 -12 906 206 b 482 990 906 757 788 990 z m 546 1089 b 790 1207 546 1089 721 1024 l 785 1208 b 581 1149 753 1132 624 1131 l 428 1208 b 185 1090 428 1208 253 1271 l 189 1089 b 394 1149 228 1174 350 1165 z "},"Ö":{"ha":969,"x_min":0,"x_max":0,"o":"m 482 0 b 139 482 317 0 139 100 b 482 978 139 863 317 978 b 822 482 646 978 822 863 b 482 0 822 100 646 0 z m 482 990 b 58 482 176 990 58 757 b 482 -12 58 206 176 -12 b 906 482 788 -12 906 206 b 482 990 906 757 788 990 z m 439 1140 b 392 1189 439 1168 417 1189 b 346 1140 365 1189 346 1168 b 392 1094 346 1115 365 1094 b 439 1140 417 1094 439 1115 z m 621 1140 b 574 1189 621 1168 599 1189 b 528 1140 547 1189 528 1168 b 574 1094 528 1115 547 1094 b 621 1140 599 1094 621 1115 z "},"×":{"ha":833,"x_min":0,"x_max":0,"o":"m 467 353 l 751 638 l 701 689 l 417 406 l 133 690 l 82 638 l 367 353 l 82 69 l 133 18 l 417 303 l 701 18 l 751 69 z "},"Ø":{"ha":969,"x_min":0,"x_max":0,"o":"m 482 0 b 271 75 408 0 333 19 l 729 854 b 822 483 785 776 822 658 b 482 0 822 100 646 0 z m 139 483 b 482 978 139 865 317 978 b 713 876 564 978 649 953 l 253 93 b 139 483 186 165 139 288 z m 756 900 l 836 1035 l 806 1035 l 736 917 b 482 990 672 965 589 990 b 58 483 176 990 58 760 b 233 58 58 300 110 143 l 169 -49 l 199 -49 l 253 44 b 482 -12 314 8 389 -12 b 906 483 788 -12 906 206 b 756 900 906 653 861 807 z "},"Ù":{"ha":901,"x_min":0,"x_max":0,"o":"m 350 1243 l 268 1224 l 582 1021 l 592 1021 z m 733 322 l 733 665 b 882 965 733 928 728 965 l 882 965 l 882 978 l 581 978 l 581 965 b 721 665 713 965 721 928 l 721 322 b 449 29 721 140 626 29 b 175 311 279 29 175 129 l 175 843 b 267 965 175 963 207 965 l 267 978 l 17 978 l 17 965 b 101 847 78 965 101 950 l 101 325 b 401 -12 101 99 231 -12 b 733 322 622 -12 735 122 z "},"Ú":{"ha":901,"x_min":0,"x_max":0,"o":"m 271 1021 l 281 1021 l 594 1224 l 513 1243 z m 733 322 l 733 665 b 882 965 733 928 728 965 l 882 965 l 882 978 l 581 978 l 581 965 b 721 665 713 965 721 928 l 721 322 b 449 29 721 140 626 29 b 175 311 279 29 175 129 l 175 843 b 267 965 175 963 207 965 l 267 978 l 17 978 l 17 965 b 101 847 78 965 101 950 l 101 325 b 401 -12 101 99 231 -12 b 733 322 622 -12 735 122 z "},"Û":{"ha":901,"x_min":0,"x_max":0,"o":"m 601 1021 l 617 1021 l 436 1282 l 256 1021 l 271 1021 l 436 1197 z m 733 322 l 733 665 b 882 965 733 928 728 965 l 882 965 l 882 978 l 581 978 l 581 965 b 721 665 713 965 721 928 l 721 322 b 449 29 721 140 626 29 b 175 311 279 29 175 129 l 175 843 b 267 965 175 963 207 965 l 267 978 l 17 978 l 17 965 b 101 847 78 965 101 950 l 101 325 b 401 -12 101 99 231 -12 b 733 322 622 -12 735 122 z "},"Ü":{"ha":901,"x_min":0,"x_max":0,"o":"m 400 1140 b 353 1189 400 1168 378 1189 b 307 1140 326 1189 307 1168 b 353 1094 307 1115 326 1094 b 400 1140 378 1094 400 1115 z m 582 1140 b 535 1189 582 1168 560 1189 b 489 1140 508 1189 489 1168 b 535 1094 489 1115 508 1094 b 582 1140 560 1094 582 1115 z m 733 322 l 733 665 b 882 965 733 928 728 965 l 882 965 l 882 978 l 581 978 l 581 965 b 721 665 713 965 721 928 l 721 322 b 449 29 721 140 626 29 b 175 311 279 29 175 129 l 175 843 b 267 965 175 963 207 965 l 267 978 l 17 978 l 17 965 b 101 847 78 965 101 950 l 101 325 b 401 -12 101 99 231 -12 b 733 322 622 -12 735 122 z "},"Ý":{"ha":851,"x_min":0,"x_max":0,"o":"m 532 978 l 532 965 b 582 681 708 965 676 872 l 463 439 l 250 811 b 282 967 156 971 233 967 l 282 978 l 13 978 l 13 967 b 154 860 68 961 92 967 b 407 417 154 860 203 778 l 407 144 b 317 14 407 13 375 14 l 317 0 l 557 0 l 557 14 b 465 144 499 14 465 13 l 465 418 l 586 663 b 831 965 738 969 746 965 l 831 978 z m 281 1021 l 290 1021 l 604 1224 l 522 1243 z "},"Þ":{"ha":650,"x_min":0,"x_max":0,"o":"m 172 794 b 546 525 361 794 546 806 b 172 261 546 257 376 261 l 172 261 z m 172 249 b 621 525 449 249 621 265 b 172 806 621 788 449 806 l 172 806 l 172 843 b 243 967 172 929 183 967 l 243 978 l 38 978 l 38 967 b 106 843 99 967 106 929 l 106 157 b 38 13 106 63 96 13 l 38 0 l 243 0 l 243 13 b 172 157 185 13 172 63 z "},"ß":{"ha":756,"x_min":0,"x_max":0,"o":"m 400 581 b 606 794 428 581 606 626 b 318 1038 606 972 478 1038 b 94 719 160 1038 94 932 l 94 157 b 39 11 94 86 92 28 l 39 0 l 171 0 l 171 807 b 318 1025 171 807 169 1025 b 519 797 346 1025 519 1033 b 326 583 519 601 400 583 l 326 572 b 617 283 438 572 611 553 b 432 0 622 67 538 0 b 354 35 372 0 338 35 b 386 43 361 35 376 35 b 394 111 403 56 410 93 b 329 118 381 128 349 133 b 310 69 315 107 308 86 b 432 -12 314 36 358 -12 b 721 279 626 -12 721 100 b 400 581 721 528 508 581 z "},"à":{"ha":618,"x_min":0,"x_max":0,"o":"m 265 978 l 183 958 l 497 756 l 507 756 z m 407 129 b 256 28 392 96 354 28 b 126 154 176 28 126 74 b 407 354 126 251 222 308 z m 540 33 b 482 111 482 33 482 111 l 482 376 b 329 654 482 542 450 654 b 207 628 329 654 264 656 b 99 525 133 588 106 542 b 108 472 92 508 96 488 b 178 467 126 450 157 449 b 183 539 199 486 201 518 b 150 557 174 550 163 554 b 218 619 143 558 154 589 b 407 442 344 672 407 583 l 407 367 b 57 132 175 306 57 258 b 214 -12 57 -14 214 -12 b 407 108 310 -12 389 36 b 503 -12 407 -19 503 -12 b 597 78 561 -12 590 38 l 586 82 b 540 33 576 33 540 33 z "},"á":{"ha":618,"x_min":0,"x_max":0,"o":"m 164 756 l 174 756 l 488 958 l 406 978 z m 407 129 b 256 28 392 96 354 28 b 126 154 176 28 126 74 b 407 354 126 251 222 308 z m 540 33 b 482 111 482 33 482 111 l 482 376 b 329 654 482 542 450 654 b 207 628 329 654 264 656 b 99 525 133 588 106 542 b 108 472 92 508 96 488 b 178 467 126 450 157 449 b 183 539 199 486 201 518 b 150 557 174 550 163 554 b 218 619 143 558 154 589 b 407 442 344 672 407 583 l 407 367 b 57 132 175 306 57 258 b 214 -12 57 -14 214 -12 b 407 108 310 -12 389 36 b 503 -12 407 -19 503 -12 b 597 78 561 -12 590 38 l 586 82 b 540 33 576 33 540 33 z "},"â":{"ha":618,"x_min":0,"x_max":0,"o":"m 407 129 b 256 28 392 96 354 28 b 126 154 176 28 126 74 b 407 354 126 251 222 308 z m 540 33 b 482 111 482 33 482 111 l 482 376 b 329 654 482 542 450 654 b 207 628 329 654 264 656 b 99 525 133 588 106 542 b 108 472 92 508 96 488 b 178 467 126 450 157 449 b 183 539 199 486 201 518 b 150 557 174 550 163 554 b 218 619 143 558 154 589 b 407 442 344 672 407 583 l 407 367 b 57 132 175 306 57 258 b 214 -12 57 -14 214 -12 b 407 108 310 -12 389 36 b 503 -12 407 -19 503 -12 b 597 78 561 -12 590 38 l 586 82 b 540 33 576 33 540 33 z m 490 717 l 506 717 l 325 978 l 144 717 l 160 717 l 325 893 z "},"ã":{"ha":618,"x_min":0,"x_max":0,"o":"m 392 801 b 636 919 392 801 567 736 l 631 921 b 426 861 599 844 469 843 l 274 921 b 31 803 274 921 99 983 l 35 801 b 240 861 74 886 196 878 z m 407 129 b 256 28 392 96 354 28 b 126 154 176 28 126 74 b 407 354 126 251 222 308 z m 540 33 b 482 111 482 33 482 111 l 482 376 b 329 654 482 542 450 654 b 207 628 329 654 264 656 b 99 525 133 588 106 542 b 108 472 92 508 96 488 b 178 467 126 450 157 449 b 183 539 199 486 201 518 b 150 557 174 550 163 554 b 218 619 143 558 154 589 b 407 442 344 672 407 583 l 407 367 b 57 132 175 306 57 258 b 214 -12 57 -14 214 -12 b 407 108 310 -12 389 36 b 503 -12 407 -19 503 -12 b 597 78 561 -12 590 38 l 586 82 b 540 33 576 33 540 33 z "},"ä":{"ha":618,"x_min":0,"x_max":0,"o":"m 256 856 b 208 904 256 883 233 904 b 163 856 182 904 163 883 b 208 810 163 831 182 810 b 256 856 233 810 256 831 z m 438 856 b 390 904 438 883 415 904 b 344 856 364 904 344 883 b 390 810 344 831 364 810 b 438 856 415 810 438 831 z m 407 129 b 256 28 392 96 354 28 b 126 154 176 28 126 74 b 407 354 126 251 222 308 z m 540 33 b 482 111 482 33 482 111 l 482 376 b 329 654 482 542 450 654 b 207 628 329 654 264 656 b 99 525 133 588 106 542 b 108 472 92 508 96 488 b 178 467 126 450 157 449 b 183 539 199 486 201 518 b 150 557 174 550 163 554 b 218 619 143 558 154 589 b 407 442 344 672 407 583 l 407 367 b 57 132 175 306 57 258 b 214 -12 57 -14 214 -12 b 407 108 310 -12 389 36 b 503 -12 407 -19 503 -12 b 597 78 561 -12 590 38 l 586 82 b 540 33 576 33 540 33 z "},"å":{"ha":618,"x_min":0,"x_max":0,"o":"m 300 758 b 428 886 371 758 428 817 b 300 1015 428 957 371 1015 b 172 886 229 1015 172 957 b 300 758 172 817 229 758 z m 300 983 b 396 886 353 983 396 940 b 300 790 396 833 353 790 b 204 886 246 790 204 833 b 300 983 204 940 246 983 z m 407 129 b 256 28 392 96 354 28 b 126 154 176 28 126 74 b 407 354 126 251 222 308 z m 540 33 b 482 111 482 33 482 111 l 482 376 b 329 654 482 542 450 654 b 207 628 329 654 264 656 b 99 525 133 588 106 542 b 108 472 92 508 96 488 b 178 467 126 450 157 449 b 183 539 199 486 201 518 b 150 557 174 550 163 554 b 218 619 143 558 154 589 b 407 442 344 672 407 583 l 407 367 b 57 132 175 306 57 258 b 214 -12 57 -14 214 -12 b 407 108 310 -12 389 36 b 503 -12 407 -19 503 -12 b 597 78 561 -12 590 38 l 586 82 b 540 33 576 33 540 33 z "},"æ":{"ha":933,"x_min":0,"x_max":0,"o":"m 638 642 b 804 340 696 642 804 588 l 461 340 b 638 642 461 574 557 642 z m 254 28 b 125 156 175 28 125 72 b 383 343 125 278 336 328 l 383 308 b 400 147 383 267 390 183 b 254 28 381 86 333 28 z m 660 18 b 460 328 515 18 460 113 l 876 328 b 638 654 876 567 765 654 b 440 544 547 654 493 617 b 306 654 419 610 378 654 b 197 626 306 654 254 654 b 92 525 124 586 99 542 b 101 472 85 508 89 488 b 171 467 119 450 150 449 b 176 539 192 486 194 518 b 143 557 167 550 154 556 b 211 619 136 558 147 589 b 383 442 338 672 383 583 l 383 356 b 56 132 167 294 56 247 b 213 -12 56 -12 213 -12 b 406 135 307 -12 383 33 b 629 -12 442 36 519 -12 b 847 158 778 -12 838 107 l 839 164 b 660 18 822 101 757 18 z "},"ç":{"ha":640,"x_min":0,"x_max":0,"o":"m 589 176 b 375 18 571 110 508 18 b 146 322 274 18 146 101 b 378 642 146 601 317 642 b 540 589 507 642 554 585 b 506 586 533 592 519 592 b 486 522 482 575 474 547 b 550 504 496 500 528 494 b 575 547 567 514 575 529 b 378 654 575 571 551 654 b 63 317 190 654 63 497 b 339 -12 63 85 214 -4 l 303 -118 b 460 -214 432 -85 460 -167 b 364 -304 460 -276 415 -304 b 307 -287 322 -306 303 -287 b 324 -278 313 -287 318 -285 b 315 -244 331 -267 328 -251 b 282 -250 304 -236 289 -239 b 281 -276 276 -258 276 -269 b 364 -308 285 -283 304 -310 b 503 -200 411 -308 489 -300 b 324 -92 511 -129 454 -62 l 351 -12 l 361 -12 b 599 175 529 -12 588 107 z "},"è":{"ha":635,"x_min":0,"x_max":0,"o":"m 254 978 l 172 958 l 486 756 l 496 756 z m 356 15 b 133 333 231 15 133 96 l 579 333 b 331 654 579 554 453 654 b 51 313 179 654 51 528 b 338 -12 51 108 174 -12 b 558 160 479 -12 551 101 l 550 161 b 356 15 533 89 449 15 z m 133 347 b 331 642 133 563 253 642 b 510 347 386 642 510 576 z "},"é":{"ha":635,"x_min":0,"x_max":0,"o":"m 164 756 l 174 756 l 488 958 l 406 978 z m 356 15 b 133 333 231 15 133 96 l 579 333 b 331 654 579 554 453 654 b 51 313 179 654 51 528 b 338 -12 51 108 174 -12 b 558 160 479 -12 551 101 l 550 161 b 356 15 533 89 449 15 z m 133 347 b 331 642 133 563 253 642 b 510 347 386 642 510 576 z "},"ê":{"ha":635,"x_min":0,"x_max":0,"o":"m 356 15 b 133 333 231 15 133 96 l 579 333 b 331 654 579 554 453 654 b 51 313 179 654 51 528 b 338 -12 51 108 174 -12 b 558 160 479 -12 551 101 l 550 161 b 356 15 533 89 449 15 z m 133 347 b 331 642 133 563 253 642 b 510 347 386 642 510 576 z m 511 717 l 526 717 l 346 978 l 165 717 l 181 717 l 346 893 z "},"ë":{"ha":635,"x_min":0,"x_max":0,"o":"m 297 856 b 250 904 297 883 275 904 b 204 856 224 904 204 883 b 250 810 204 831 224 810 b 297 856 275 810 297 831 z m 479 856 b 432 904 479 883 457 904 b 386 856 406 904 386 883 b 432 810 386 831 406 810 b 479 856 457 810 479 831 z m 356 15 b 133 333 231 15 133 96 l 579 333 b 331 654 579 554 453 654 b 51 313 179 654 51 528 b 338 -12 51 108 174 -12 b 558 160 479 -12 551 101 l 550 161 b 356 15 533 89 449 15 z m 133 347 b 331 642 133 563 253 642 b 510 347 386 642 510 576 z "},"ì":{"ha":289,"x_min":0,"x_max":0,"o":"m 179 654 l 40 631 l 40 619 b 110 551 99 619 110 600 l 110 89 b 54 13 110 18 107 28 l 54 0 l 236 0 l 236 13 b 179 89 186 25 179 13 z m 24 978 l -58 958 l 256 756 l 265 756 z "},"í":{"ha":289,"x_min":0,"x_max":0,"o":"m 179 654 l 40 631 l 40 619 b 110 551 99 619 110 600 l 110 89 b 54 13 110 18 107 28 l 54 0 l 236 0 l 236 13 b 179 89 186 25 179 13 z m -21 756 l -11 756 l 303 958 l 221 978 z "},"î":{"ha":289,"x_min":0,"x_max":0,"o":"m 179 654 l 40 631 l 40 619 b 110 551 99 619 110 600 l 110 89 b 54 13 110 18 107 28 l 54 0 l 236 0 l 236 13 b 179 89 186 25 179 13 z m 304 717 l 319 717 l 139 978 l -42 717 l -26 717 l 139 893 z "},"ï":{"ha":289,"x_min":0,"x_max":0,"o":"m 92 856 b 44 904 92 883 69 904 b -1 856 18 904 -1 883 b 44 810 -1 831 18 810 b 92 856 69 810 92 831 z m 274 856 b 226 904 274 883 251 904 b 181 856 200 904 181 883 b 226 810 181 831 200 810 b 274 856 251 810 274 831 z m 179 654 l 40 631 l 40 619 b 110 551 99 619 110 600 l 110 89 b 54 13 110 18 107 28 l 54 0 l 236 0 l 236 13 b 179 89 186 25 179 13 z "},"ð":{"ha":683,"x_min":0,"x_max":0,"o":"m 615 954 l 596 967 l 458 892 b 214 990 386 956 322 990 l 214 978 b 428 878 308 978 374 939 l 215 765 l 235 754 l 439 860 b 557 482 503 774 557 603 b 349 607 513 575 421 607 b 54 293 169 607 67 460 b 301 -12 38 79 183 -12 b 631 471 540 -12 631 194 b 474 876 631 631 546 789 z m 557 458 b 301 0 557 135 479 0 b 144 289 219 0 132 75 b 364 576 154 471 229 576 b 557 461 428 576 513 540 z "},"ñ":{"ha":650,"x_min":0,"x_max":0,"o":"m 406 801 b 650 919 406 801 581 736 l 644 921 b 440 861 613 844 483 843 l 288 921 b 44 803 288 921 113 983 l 49 801 b 254 861 88 886 210 878 z m 560 89 l 560 422 b 351 654 560 589 468 654 b 154 513 264 654 181 589 l 154 654 l 15 631 l 15 619 b 85 550 74 619 85 599 l 85 89 b 29 13 85 18 82 28 l 29 0 l 211 0 l 211 13 b 154 89 161 25 154 13 l 154 492 b 319 617 176 536 231 617 b 492 417 433 617 492 539 l 492 89 b 436 11 492 18 489 26 l 436 0 l 617 0 l 617 11 b 560 89 568 24 560 13 z "},"ò":{"ha":742,"x_min":0,"x_max":0,"o":"m 289 978 l 207 958 l 521 756 l 531 756 z m 367 654 b 57 321 156 654 57 504 b 367 -12 57 139 156 -12 b 676 321 579 -12 676 139 b 367 654 676 504 579 654 z m 367 0 b 136 321 254 0 136 69 b 367 642 136 572 254 642 b 596 321 479 642 596 572 b 367 0 596 69 479 0 z "},"ó":{"ha":742,"x_min":0,"x_max":0,"o":"m 211 756 l 221 756 l 535 958 l 453 978 z m 367 654 b 57 321 156 654 57 504 b 367 -12 57 139 156 -12 b 676 321 579 -12 676 139 b 367 654 676 504 579 654 z m 367 0 b 136 321 254 0 136 69 b 367 642 136 572 254 642 b 596 321 479 642 596 572 b 367 0 596 69 479 0 z "},"ô":{"ha":742,"x_min":0,"x_max":0,"o":"m 531 717 l 546 717 l 365 978 l 185 717 l 200 717 l 365 893 z m 367 654 b 57 321 156 654 57 504 b 367 -12 57 139 156 -12 b 676 321 579 -12 676 139 b 367 654 676 504 579 654 z m 367 0 b 136 321 254 0 136 69 b 367 642 136 572 254 642 b 596 321 479 642 596 572 b 367 0 596 69 479 0 z "},"õ":{"ha":742,"x_min":0,"x_max":0,"o":"m 447 801 b 692 919 447 801 622 736 l 686 921 b 482 861 654 844 525 843 l 329 921 b 86 803 329 921 154 983 l 90 801 b 296 861 129 886 251 878 z m 367 654 b 57 321 156 654 57 504 b 367 -12 57 139 156 -12 b 676 321 579 -12 676 139 b 367 654 676 504 579 654 z m 367 0 b 136 321 254 0 136 69 b 367 642 136 572 254 642 b 596 321 479 642 596 572 b 367 0 596 69 479 0 z "},"ö":{"ha":742,"x_min":0,"x_max":0,"o":"m 326 856 b 279 904 326 883 304 904 b 233 856 253 904 233 883 b 279 810 233 831 253 810 b 326 856 304 810 326 831 z m 508 856 b 461 904 508 883 486 904 b 415 856 435 904 415 883 b 461 810 415 831 435 810 b 508 856 486 810 508 831 z m 367 654 b 57 321 156 654 57 504 b 367 -12 57 139 156 -12 b 676 321 579 -12 676 139 b 367 654 676 504 579 654 z m 367 0 b 136 321 254 0 136 69 b 367 642 136 572 254 642 b 596 321 479 642 596 572 b 367 0 596 69 479 0 z "},"÷":{"ha":868,"x_min":0,"x_max":0,"o":"m 807 357 l 807 410 l 63 410 l 63 357 z m 493 685 b 435 744 493 718 467 744 b 375 685 401 744 375 718 b 435 626 375 653 401 626 b 493 685 467 626 493 653 z m 493 83 b 435 143 493 117 467 143 b 375 83 401 143 375 117 b 435 25 375 51 401 25 b 493 83 467 25 493 51 z "},"ø":{"ha":743,"x_min":0,"x_max":0,"o":"m 538 611 l 603 729 l 582 729 l 521 619 b 367 654 479 642 426 654 b 57 318 156 654 57 501 b 196 32 57 196 101 89 l 126 -93 l 149 -93 l 213 22 b 367 -12 254 1 306 -12 b 676 318 579 -12 676 136 b 538 611 676 443 633 556 z m 136 318 b 367 642 136 569 254 642 b 504 593 415 642 464 628 l 213 61 b 136 318 167 110 136 189 z m 367 0 b 226 49 318 0 267 13 l 519 579 b 596 318 564 532 596 449 b 367 0 596 67 479 0 z "},"ù":{"ha":669,"x_min":0,"x_max":0,"o":"m 274 978 l 192 958 l 506 756 l 515 756 z m 574 104 l 574 654 l 439 629 l 439 618 b 504 532 504 618 504 617 l 504 147 b 338 24 485 86 436 24 b 168 199 257 24 168 67 l 168 654 l 24 629 l 24 618 b 101 522 101 618 101 618 l 101 194 b 322 -12 101 15 232 -12 b 504 118 422 -12 489 50 l 504 4 b 533 -11 504 4 503 -18 l 644 7 l 644 18 b 574 104 586 25 574 38 z "},"ú":{"ha":669,"x_min":0,"x_max":0,"o":"m 169 756 l 179 756 l 493 958 l 411 978 z m 574 104 l 574 654 l 439 629 l 439 618 b 504 532 504 618 504 617 l 504 147 b 338 24 485 86 436 24 b 168 199 257 24 168 67 l 168 654 l 24 629 l 24 618 b 101 522 101 618 101 618 l 101 194 b 322 -12 101 15 232 -12 b 504 118 422 -12 489 50 l 504 4 b 533 -11 504 4 503 -18 l 644 7 l 644 18 b 574 104 586 25 574 38 z "},"û":{"ha":669,"x_min":0,"x_max":0,"o":"m 574 104 l 574 654 l 439 629 l 439 618 b 504 532 504 618 504 617 l 504 147 b 338 24 485 86 436 24 b 168 199 257 24 168 67 l 168 654 l 24 629 l 24 618 b 101 522 101 618 101 618 l 101 194 b 322 -12 101 15 232 -12 b 504 118 422 -12 489 50 l 504 4 b 533 -11 504 4 503 -18 l 644 7 l 644 18 b 574 104 586 25 574 38 z m 496 717 l 511 717 l 331 978 l 150 717 l 165 717 l 331 893 z "},"ü":{"ha":669,"x_min":0,"x_max":0,"o":"m 283 856 b 236 904 283 883 261 904 b 190 856 210 904 190 883 b 236 810 190 831 210 810 b 283 856 261 810 283 831 z m 465 856 b 418 904 465 883 443 904 b 372 856 392 904 372 883 b 418 810 372 831 392 810 b 465 856 443 810 465 831 z m 574 104 l 574 654 l 439 629 l 439 618 b 504 532 504 618 504 617 l 504 147 b 338 24 485 86 436 24 b 168 199 257 24 168 67 l 168 654 l 24 629 l 24 618 b 101 522 101 618 101 618 l 101 194 b 322 -12 101 15 232 -12 b 504 118 422 -12 489 50 l 504 4 b 533 -11 504 4 503 -18 l 644 7 l 644 18 b 574 104 586 25 574 38 z "},"ý":{"ha":731,"x_min":0,"x_max":0,"o":"m 444 642 l 444 631 b 524 406 606 633 524 406 l 413 88 l 215 514 b 263 631 215 514 156 631 l 263 642 l 15 642 l 15 631 b 124 544 38 628 90 617 b 381 0 124 544 135 533 l 308 -208 b 260 -260 292 -254 265 -283 b 233 -229 257 -249 247 -235 b 167 -256 208 -218 179 -229 b 193 -322 157 -281 167 -310 b 251 -315 211 -331 238 -326 b 318 -212 265 -304 297 -278 l 536 403 b 710 631 610 610 642 631 l 710 642 z m 228 756 l 238 756 l 551 958 l 469 978 z "},"þ":{"ha":711,"x_min":0,"x_max":0,"o":"m 336 0 b 161 181 232 0 165 74 l 161 449 b 336 622 167 556 233 622 b 558 289 464 622 558 506 b 336 0 558 54 419 0 z m 363 654 b 161 551 286 654 201 617 l 161 1014 l 22 990 l 22 979 b 92 910 81 979 92 958 l 92 -279 b 36 -356 92 -350 89 -340 l 36 -368 l 218 -368 l 218 -356 b 161 -279 168 -343 161 -356 l 161 50 b 342 -12 207 13 265 -12 b 650 315 518 -12 650 107 b 363 654 650 482 576 654 z "},"ÿ":{"ha":731,"x_min":0,"x_max":0,"o":"m 326 856 b 279 904 326 883 304 904 b 233 856 253 904 233 883 b 279 810 233 831 253 810 b 326 856 304 810 326 831 z m 508 856 b 461 904 508 883 486 904 b 415 856 435 904 415 883 b 461 810 415 831 435 810 b 508 856 486 810 508 831 z m 444 642 l 444 631 b 524 406 606 633 524 406 l 413 88 l 215 514 b 263 631 215 514 156 631 l 263 642 l 15 642 l 15 631 b 124 544 38 628 90 617 b 381 0 124 544 135 533 l 308 -208 b 260 -260 292 -254 265 -283 b 233 -229 257 -249 247 -235 b 167 -256 208 -218 179 -229 b 193 -322 157 -281 167 -310 b 251 -315 211 -331 238 -326 b 318 -212 265 -304 297 -278 l 536 403 b 710 631 610 610 642 631 l 710 642 z "},"Ă":{"ha":1056,"x_min":0,"x_max":0,"o":""},"ă":{"ha":618,"x_min":0,"x_max":0,"o":"m 407 129 b 256 28 392 96 354 28 b 126 154 176 28 126 74 b 407 354 126 251 222 308 z m 540 33 b 482 111 482 33 482 111 l 482 376 b 329 654 482 542 450 654 b 207 628 329 654 264 656 b 99 525 133 588 106 542 b 108 472 92 508 96 488 b 178 467 126 450 157 449 b 183 539 199 486 201 518 b 150 557 174 550 163 554 b 218 619 143 558 154 589 b 407 442 344 672 407 583 l 407 367 b 57 132 175 306 57 258 b 214 -12 57 -14 214 -12 b 407 108 310 -12 389 36 b 503 -12 407 -19 503 -12 b 597 78 561 -12 590 38 l 586 82 b 540 33 576 33 540 33 z m 322 844 b 151 974 178 844 151 922 l 147 974 b 322 789 147 868 188 789 b 493 974 454 789 493 868 l 490 974 b 322 844 490 922 463 844 z "},"Ą":{"ha":925,"x_min":0,"x_max":0,"o":"m 794 138 l 463 978 l 457 978 l 232 347 b 24 13 128 36 93 13 l 24 0 l 301 0 l 301 13 b 246 319 135 13 169 97 l 636 319 l 690 178 b 669 13 756 22 711 13 l 669 0 l 843 0 b 694 -215 726 -44 653 -121 b 807 -269 694 -215 719 -269 b 906 -158 869 -269 906 -229 l 894 -158 b 822 -244 894 -190 871 -244 b 735 -182 822 -244 753 -256 b 863 0 722 -129 785 -33 l 906 0 l 906 13 b 794 138 864 15 839 26 z m 250 332 l 435 847 l 632 332 z "},"ą":{"ha":618,"x_min":0,"x_max":0,"o":"m 540 33 b 482 111 482 33 482 111 l 482 376 b 329 654 482 542 450 654 b 207 628 329 654 264 656 b 99 525 133 588 106 542 b 108 472 92 508 96 488 b 178 467 126 450 157 449 b 183 539 199 486 201 518 b 150 557 174 550 163 554 b 218 619 143 558 154 589 b 407 442 344 672 407 583 l 407 367 b 57 132 175 306 57 258 b 214 -12 57 -14 214 -12 b 407 108 310 -12 389 36 b 488 -11 407 8 463 -8 b 368 -215 389 -57 331 -129 b 481 -269 368 -215 393 -269 b 579 -158 543 -269 579 -229 l 568 -158 b 496 -244 568 -190 544 -244 b 408 -182 496 -244 426 -256 b 513 -11 397 -135 446 -51 b 597 78 564 -6 590 40 l 586 82 b 540 33 576 33 540 33 z m 407 129 b 256 28 392 96 354 28 b 126 154 176 28 126 74 b 407 354 126 251 222 308 z "},"Ć":{"ha":908,"x_min":0,"x_max":0,"o":"m 351 1021 l 361 1021 l 675 1224 l 593 1243 z m 821 285 b 538 0 821 13 594 0 b 161 489 406 0 161 18 b 538 978 161 947 401 978 b 821 694 603 978 821 965 l 833 694 l 846 906 b 538 990 758 976 681 990 b 56 489 258 990 56 838 b 538 -12 56 147 258 -12 b 846 74 686 -12 743 6 l 833 285 z "},"ć":{"ha":646,"x_min":0,"x_max":0,"o":"m 589 176 b 375 18 571 110 508 18 b 146 322 274 18 146 101 b 378 642 146 601 317 642 b 540 589 507 642 554 585 b 506 586 533 592 519 592 b 486 522 482 575 474 547 b 550 504 496 500 528 494 b 575 547 567 514 575 529 b 378 654 575 571 551 654 b 63 317 190 654 63 497 b 361 -12 63 71 233 -12 b 599 175 529 -12 588 107 z m 196 756 l 206 756 l 519 958 l 438 978 z "},"Č":{"ha":908,"x_min":0,"x_max":0,"o":""},"č":{"ha":646,"x_min":0,"x_max":0,"o":"m 589 176 b 375 18 571 110 508 18 b 146 322 274 18 146 101 b 378 642 146 601 317 642 b 540 589 507 642 554 585 b 506 586 533 592 519 592 b 486 522 482 575 474 547 b 550 504 496 500 528 494 b 575 547 567 514 575 529 b 378 654 575 571 551 654 b 63 317 190 654 63 497 b 361 -12 63 71 233 -12 b 599 175 529 -12 588 107 z m 376 801 l 211 978 l 196 978 l 376 717 l 557 978 l 542 978 z "},"Ď":{"ha":876,"x_min":0,"x_max":0,"o":"m 288 13 l 226 13 l 226 965 l 288 965 b 717 489 457 965 717 953 b 288 13 717 -1 450 13 z m 288 978 l 57 978 l 57 965 b 140 842 118 965 140 928 l 140 140 b 57 13 140 46 117 13 l 57 0 l 288 0 b 808 489 564 0 808 54 b 288 978 808 896 564 978 z m 372 1106 l 207 1282 l 192 1282 l 372 1021 l 553 1282 l 538 1282 z "},"ď":{"ha":825,"x_min":0,"x_max":0,"o":"m 688 978 b 631 750 688 796 631 750 l 636 740 b 751 978 636 740 751 818 z m 540 181 b 371 19 540 83 460 19 b 147 354 242 19 147 138 b 371 642 147 589 288 642 b 540 471 460 642 540 565 z m 608 83 l 608 1014 l 469 990 l 469 978 b 540 906 526 978 540 954 l 540 594 b 365 654 494 631 438 654 b 56 328 189 654 56 536 b 344 -12 56 160 129 -12 b 540 81 417 -12 499 21 l 540 14 b 579 -11 540 14 540 -18 l 679 10 l 679 21 b 608 83 624 15 608 15 z "},"Đ":{"ha":876,"x_min":0,"x_max":0,"o":"m 292 978 l 61 978 l 61 967 b 144 842 122 967 144 928 l 144 503 l -7 503 l -7 474 l 144 474 l 144 140 b 61 13 144 46 121 13 l 61 0 l 292 0 b 813 489 568 0 813 54 b 292 978 813 896 568 978 z m 292 13 l 231 13 l 231 474 l 425 474 l 425 503 l 231 503 l 231 967 l 292 967 b 721 489 461 967 721 953 b 292 13 721 -1 454 13 z "},"đ":{"ha":750,"x_min":0,"x_max":0,"o":"m 608 83 l 608 767 l 790 767 l 790 796 l 608 796 l 608 1014 l 469 990 l 469 978 b 540 906 526 978 540 954 l 540 796 l 353 796 l 353 767 l 540 767 l 540 594 b 365 654 494 631 438 654 b 56 328 189 654 56 536 b 344 -12 56 160 129 -12 b 540 81 417 -12 499 21 l 540 14 b 579 -11 540 14 540 -18 l 679 10 l 679 21 b 608 83 624 15 608 15 z m 540 181 b 371 19 540 83 460 19 b 147 354 242 19 147 138 b 371 642 147 589 288 642 b 540 471 460 642 540 565 z "},"Ę":{"ha":736,"x_min":0,"x_max":0,"o":"m 640 275 b 269 13 640 0 517 13 l 192 13 l 192 488 l 322 488 b 482 351 393 488 482 486 l 494 351 l 494 636 l 482 636 b 322 500 482 501 397 500 l 192 500 l 192 965 l 293 965 b 622 742 518 965 622 961 l 635 742 l 635 978 l 39 978 l 39 965 b 107 874 100 965 107 960 l 107 135 b 39 13 107 40 97 13 l 39 0 l 590 0 b 442 -215 474 -44 400 -121 b 554 -269 442 -215 467 -269 b 653 -158 617 -269 653 -229 l 642 -158 b 569 -244 642 -190 618 -244 b 482 -182 569 -244 500 -256 b 610 0 469 -129 532 -33 l 653 0 l 653 275 z "},"ę":{"ha":635,"x_min":0,"x_max":0,"o":"m 356 15 b 133 333 231 15 133 96 l 579 333 b 331 654 579 554 453 654 b 51 313 179 654 51 528 b 338 -12 51 108 174 -12 b 367 -10 347 -12 357 -11 b 244 -215 265 -56 207 -129 b 357 -269 244 -215 269 -269 b 456 -158 419 -269 456 -229 l 444 -158 b 372 -244 444 -190 421 -244 b 285 -182 372 -244 303 -256 b 408 -1 272 -129 332 -36 b 558 160 503 28 553 113 l 550 161 b 356 15 533 89 449 15 z m 133 347 b 331 642 133 563 253 642 b 510 347 386 642 510 576 z "},"Ě":{"ha":736,"x_min":0,"x_max":0,"o":"m 388 1106 l 222 1282 l 207 1282 l 388 1021 l 568 1282 l 553 1282 z m 640 275 b 269 13 640 0 517 13 l 192 13 l 192 488 l 322 488 b 482 351 393 488 482 486 l 494 351 l 494 636 l 482 636 b 322 500 482 501 397 500 l 192 500 l 192 965 l 293 965 b 622 742 518 965 622 961 l 635 742 l 635 978 l 39 978 l 39 965 b 107 874 100 965 107 960 l 107 135 b 39 13 107 40 97 13 l 39 0 l 653 0 l 653 275 z "},"ě":{"ha":635,"x_min":0,"x_max":0,"o":"m 325 801 l 160 978 l 144 978 l 325 717 l 506 978 l 490 978 z m 356 15 b 133 333 231 15 133 96 l 579 333 b 331 654 579 554 453 654 b 51 313 179 654 51 528 b 338 -12 51 108 174 -12 b 558 160 479 -12 551 101 l 550 161 b 356 15 533 89 449 15 z m 133 347 b 331 642 133 563 253 642 b 510 347 386 642 510 576 z "},"ı":{"ha":289,"x_min":0,"x_max":0,"o":"m 179 654 l 40 631 l 40 619 b 110 551 99 619 110 600 l 110 89 b 54 13 110 18 107 28 l 54 0 l 236 0 l 236 13 b 179 89 186 25 179 13 z "},"Ĺ":{"ha":740,"x_min":0,"x_max":0,"o":"m 656 303 b 254 14 656 14 551 13 l 204 14 l 204 844 b 279 968 204 944 219 968 l 279 979 l 60 979 l 60 968 b 125 857 119 968 125 942 l 125 153 b 71 14 125 58 131 14 l 71 1 l 667 1 l 667 303 z m 151 1021 l 161 1021 l 475 1224 l 393 1243 z "},"ĺ":{"ha":274,"x_min":0,"x_max":0,"o":""},"Ľ":{"ha":740,"x_min":0,"x_max":0,"o":"m 656 301 b 254 13 656 13 551 11 l 204 13 l 204 843 b 279 967 204 943 219 967 l 279 978 l 60 978 l 60 967 b 125 856 119 967 125 940 l 125 151 b 71 13 125 57 131 13 l 71 0 l 667 0 l 667 301 z m 338 978 b 281 750 338 796 281 750 l 286 740 b 401 978 286 740 401 818 z "},"ľ":{"ha":418,"x_min":0,"x_max":0,"o":"m 171 1014 l 32 990 l 32 978 b 101 910 90 978 101 958 l 101 89 b 46 13 101 18 99 28 l 46 0 l 228 0 l 228 13 b 171 89 178 25 171 13 z m 279 978 b 222 750 279 796 222 750 l 228 740 b 343 978 228 740 343 818 z "},"Ł":{"ha":742,"x_min":0,"x_max":0,"o":"m 671 301 b 269 13 671 13 567 11 l 219 13 l 219 463 l 515 629 l 515 651 l 219 486 l 219 843 b 294 967 219 943 235 967 l 294 978 l 75 978 l 75 967 b 140 856 135 967 140 940 l 140 440 l -35 342 l -35 319 l 140 418 l 140 151 b 86 13 140 57 146 13 l 86 0 l 682 0 l 682 301 z "},"ł":{"ha":357,"x_min":0,"x_max":0,"o":"m 325 528 l 325 550 l 214 485 l 214 1036 l 75 999 l 75 988 b 144 919 133 988 144 968 l 144 446 l 21 376 l 21 354 l 144 424 l 144 89 b 89 13 144 18 142 28 l 89 0 l 271 0 l 271 13 b 214 89 221 25 214 13 l 214 463 z "},"Ń":{"ha":1038,"x_min":0,"x_max":0,"o":"m 649 978 l 649 967 b 822 639 822 967 822 897 l 822 118 l 181 978 l 7 978 l 7 967 b 172 856 43 964 83 967 l 232 776 l 232 340 b 39 13 232 90 231 13 l 39 0 l 419 0 l 419 13 b 244 340 246 13 244 94 l 244 760 l 819 0 l 819 0 l 835 0 l 835 639 b 1021 967 835 897 829 967 l 1021 978 z m 310 1021 l 319 1021 l 633 1224 l 551 1243 z "},"ń":{"ha":650,"x_min":0,"x_max":0,"o":""},"Ň":{"ha":1038,"x_min":0,"x_max":0,"o":"m 486 1106 l 321 1282 l 306 1282 l 486 1021 l 667 1282 l 651 1282 z m 649 978 l 649 967 b 822 639 822 967 822 897 l 822 118 l 181 978 l 7 978 l 7 967 b 172 856 43 964 83 967 l 232 776 l 232 340 b 39 13 232 90 231 13 l 39 0 l 419 0 l 419 13 b 244 340 246 13 244 94 l 244 760 l 819 0 l 819 0 l 835 0 l 835 639 b 1021 967 835 897 829 967 l 1021 978 z "},"ň":{"ha":650,"x_min":0,"x_max":0,"o":"m 560 89 l 560 422 b 351 654 560 589 468 654 b 154 513 264 654 181 589 l 154 654 l 15 631 l 15 619 b 85 550 74 619 85 599 l 85 89 b 29 13 85 18 82 28 l 29 0 l 211 0 l 211 13 b 154 89 161 25 154 13 l 154 492 b 319 617 176 536 231 617 b 492 417 433 617 492 539 l 492 89 b 436 11 492 18 489 26 l 436 0 l 617 0 l 617 11 b 560 89 568 24 560 13 z m 354 801 l 189 978 l 174 978 l 354 717 l 535 978 l 519 978 z "},"Ő":{"ha":969,"x_min":0,"x_max":0,"o":"m 482 0 b 139 482 317 0 139 100 b 482 978 139 863 317 978 b 822 482 646 978 822 863 b 482 0 822 100 646 0 z m 482 990 b 58 482 176 990 58 757 b 482 -12 58 206 176 -12 b 906 482 788 -12 906 206 b 482 990 906 757 788 990 z m 226 1021 l 236 1021 l 550 1224 l 468 1243 z m 449 1021 l 458 1021 l 772 1224 l 690 1243 z "},"ő":{"ha":742,"x_min":0,"x_max":0,"o":""},"Œ":{"ha":1154,"x_min":0,"x_max":0,"o":"m 581 88 b 456 -1 581 33 524 -1 b 140 481 290 -1 140 99 b 456 976 140 861 290 976 b 581 874 521 976 581 946 z m 1081 275 b 715 13 1081 0 963 13 l 665 13 l 665 486 l 740 486 b 900 351 811 486 900 493 l 913 351 l 913 636 l 900 636 b 740 501 900 496 815 501 l 665 501 l 665 967 l 739 967 b 1063 742 964 967 1063 961 l 1075 742 l 1075 978 l 540 978 b 456 989 506 985 496 989 b 60 481 150 989 60 756 b 456 -12 60 204 150 -12 b 543 0 497 -12 508 -8 l 1093 0 l 1093 275 z "},"œ":{"ha":1103,"x_min":0,"x_max":0,"o":"m 631 333 b 808 642 631 567 728 642 b 975 333 867 642 975 581 z m 543 319 b 342 0 543 68 454 0 b 139 319 229 0 139 68 b 342 642 139 571 229 642 b 543 319 454 642 543 571 z m 1013 165 b 831 19 1003 108 928 19 b 631 319 700 19 631 104 l 1047 319 b 808 654 1047 558 936 654 b 586 496 703 654 638 596 b 342 654 539 588 478 654 b 60 319 131 654 60 503 b 342 -12 60 138 131 -12 b 583 136 476 -12 536 47 b 811 -12 633 42 697 -12 b 1021 163 960 -12 1011 111 z "},"Ŕ":{"ha":754,"x_min":0,"x_max":0,"o":""},"ŕ":{"ha":444,"x_min":0,"x_max":0,"o":"m 74 756 l 83 756 l 397 958 l 315 978 z m 368 653 b 158 521 289 663 188 593 l 158 654 l 19 631 l 19 619 b 89 551 78 619 89 600 l 89 89 b 33 13 89 18 86 28 l 33 0 l 215 0 l 215 13 b 158 89 165 25 158 13 l 158 493 b 314 617 194 596 326 647 b 314 578 310 604 310 590 b 385 549 326 550 358 538 b 414 618 413 561 425 590 b 368 653 404 638 388 650 z "},"Ř":{"ha":754,"x_min":0,"x_max":0,"o":"m 610 122 b 361 456 549 483 454 439 b 607 713 494 456 607 506 b 218 978 607 944 494 978 l 33 978 l 33 965 b 106 878 94 965 106 964 l 106 158 b 33 13 106 18 93 13 l 33 0 l 251 0 l 251 13 b 175 122 193 13 175 24 l 175 451 l 240 451 b 497 303 313 451 467 451 b 663 0 560 1 553 0 l 746 0 l 746 13 b 610 122 710 15 638 17 z m 218 464 l 175 464 l 175 965 l 218 965 b 526 713 381 965 526 978 b 218 464 526 461 399 464 z m 343 1106 l 178 1282 l 163 1282 l 343 1021 l 524 1282 l 508 1282 z "},"ř":{"ha":444,"x_min":0,"x_max":0,"o":""},"Ś":{"ha":696,"x_min":0,"x_max":0,"o":""},"ś":{"ha":550,"x_min":0,"x_max":0,"o":"m 356 325 l 215 413 b 249 642 94 489 76 642 b 463 425 429 642 463 539 l 474 425 l 474 608 b 249 654 474 608 408 654 b 75 565 106 654 75 565 b 196 325 39 475 65 421 l 336 240 b 300 0 442 171 496 0 b 76 238 100 0 76 108 l 65 238 l 65 35 b 300 -12 65 35 132 -12 b 458 50 415 -12 458 50 b 356 325 522 140 483 246 z m 88 756 l 97 756 l 411 958 l 329 978 z "},"Ş":{"ha":696,"x_min":0,"x_max":0,"o":"m 467 461 l 222 621 b 308 978 -15 775 158 978 b 572 693 549 978 572 893 l 586 693 l 586 926 b 308 990 586 926 474 990 b 72 881 140 990 72 881 b 221 539 -26 703 154 590 l 467 375 b 339 0 624 268 613 0 b 69 325 114 0 69 71 l 58 325 l 58 58 b 322 -12 58 58 150 -8 l 286 -118 b 443 -214 415 -85 443 -167 b 347 -304 443 -276 399 -304 b 290 -287 306 -306 286 -287 b 307 -278 296 -287 301 -285 b 299 -244 314 -267 311 -251 b 265 -250 288 -236 272 -239 b 264 -276 260 -258 260 -269 b 347 -308 268 -283 288 -310 b 486 -200 394 -308 472 -300 b 307 -92 494 -129 438 -62 l 336 -12 l 340 -12 b 600 101 547 -12 600 101 b 467 461 642 179 656 336 z "},"ş":{"ha":550,"x_min":0,"x_max":0,"o":"m 356 325 l 215 413 b 249 642 94 489 76 642 b 463 425 429 642 463 539 l 474 425 l 474 608 b 249 654 474 608 408 654 b 75 565 106 654 75 565 b 196 325 39 475 65 421 l 336 240 b 300 0 442 171 496 0 b 76 238 100 0 76 108 l 65 238 l 65 35 b 283 -12 65 35 128 -10 l 247 -118 b 404 -214 376 -85 404 -167 b 308 -304 404 -276 360 -304 b 251 -287 267 -306 247 -287 b 268 -278 257 -287 263 -285 b 260 -244 275 -267 272 -251 b 226 -250 249 -236 233 -239 b 225 -276 221 -258 221 -269 b 308 -308 229 -283 249 -310 b 447 -200 356 -308 433 -300 b 268 -92 456 -129 399 -62 l 297 -12 l 300 -12 b 458 50 415 -12 458 50 b 356 325 522 140 483 246 z "},"Š":{"ha":696,"x_min":0,"x_max":0,"o":"m 467 461 l 222 621 b 308 978 -15 775 158 978 b 572 693 549 978 572 893 l 586 693 l 586 926 b 308 990 586 926 474 990 b 72 881 140 990 72 881 b 221 539 -26 703 154 590 l 467 375 b 339 0 624 268 613 0 b 69 325 114 0 69 71 l 58 325 l 58 58 b 340 -12 58 58 157 -12 b 600 101 547 -12 600 101 b 467 461 642 179 656 336 z m 326 1106 l 161 1282 l 146 1282 l 326 1021 l 507 1282 l 492 1282 z "},"š":{"ha":550,"x_min":0,"x_max":0,"o":"m 265 815 l 100 978 l 85 978 l 265 717 l 446 978 l 431 978 z m 356 325 l 215 413 b 249 642 94 489 76 642 b 463 425 429 642 463 539 l 474 425 l 474 608 b 249 654 474 608 408 654 b 75 565 106 654 75 565 b 196 325 39 475 65 421 l 336 240 b 300 0 442 171 496 0 b 76 238 100 0 76 108 l 65 238 l 65 35 b 300 -12 65 35 132 -12 b 458 50 415 -12 458 50 b 356 325 522 140 483 246 z "},"Ţ":{"ha":840,"x_min":0,"x_max":0,"o":"m 26 978 l 26 768 l 38 768 b 244 967 38 968 158 967 l 382 967 l 382 101 b 299 13 382 13 357 13 l 299 0 l 400 0 l 360 -118 b 517 -214 489 -85 517 -167 b 421 -304 517 -276 472 -304 b 364 -287 379 -306 360 -287 b 381 -278 369 -287 375 -285 b 372 -244 388 -267 385 -251 b 339 -250 361 -236 346 -239 b 338 -276 333 -258 333 -269 b 421 -308 342 -283 361 -310 b 560 -200 468 -308 546 -300 b 381 -92 568 -129 511 -62 l 414 0 l 539 0 l 539 13 b 456 101 481 13 456 13 l 456 967 l 593 967 b 800 768 632 967 800 968 l 813 768 l 813 978 z "},"ţ":{"ha":385,"x_min":0,"x_max":0,"o":"m 271 25 b 163 204 208 25 163 61 l 163 629 l 324 629 l 326 642 l 163 642 l 163 860 l 93 851 l 93 642 l 21 642 l 22 629 l 93 629 l 93 200 b 188 -6 93 68 129 13 l 150 -118 b 307 -214 279 -85 307 -167 b 211 -304 307 -276 263 -304 b 154 -287 169 -306 150 -287 b 171 -278 160 -287 165 -285 b 163 -244 178 -267 175 -251 b 129 -250 151 -236 136 -239 b 128 -276 124 -258 124 -269 b 211 -308 132 -283 151 -310 b 350 -200 258 -308 336 -300 b 171 -92 358 -129 301 -62 l 200 -8 b 243 -12 214 -11 228 -12 b 364 92 311 -12 353 35 l 356 94 b 271 25 346 57 311 25 z "},"Ť":{"ha":840,"x_min":0,"x_max":0,"o":""},"ť":{"ha":376,"x_min":0,"x_max":0,"o":"m 275 25 b 167 204 213 25 167 61 l 167 629 l 328 629 l 331 642 l 167 642 l 167 860 l 97 851 l 97 642 l 25 642 l 26 629 l 97 629 l 97 200 b 247 -12 97 32 156 -12 b 368 92 315 -12 357 35 l 360 94 b 275 25 350 57 315 25 z m 260 978 b 203 750 260 796 203 750 l 208 740 b 324 978 208 740 324 818 z "},"Ů":{"ha":901,"x_min":0,"x_max":0,"o":""},"ů":{"ha":669,"x_min":0,"x_max":0,"o":"m 350 707 b 478 835 421 707 478 765 b 350 964 478 906 421 964 b 222 835 279 964 222 906 b 350 707 222 765 279 707 z m 350 932 b 446 835 403 932 446 889 b 350 739 446 782 403 739 b 254 835 296 739 254 782 b 350 932 254 889 296 932 z m 574 104 l 574 654 l 439 629 l 439 618 b 504 532 504 618 504 617 l 504 147 b 338 24 485 86 436 24 b 168 199 257 24 168 67 l 168 654 l 24 629 l 24 618 b 101 522 101 618 101 618 l 101 194 b 322 -12 101 15 232 -12 b 504 118 422 -12 489 50 l 504 4 b 533 -11 504 4 503 -18 l 644 7 l 644 18 b 574 104 586 25 574 38 z "},"Ű":{"ha":901,"x_min":0,"x_max":0,"o":"m 733 322 l 733 665 b 882 965 733 928 728 965 l 882 965 l 882 978 l 581 978 l 581 965 b 721 665 713 965 721 928 l 721 322 b 449 29 721 140 626 29 b 175 311 279 29 175 129 l 175 843 b 267 965 175 963 207 965 l 267 978 l 17 978 l 17 965 b 101 847 78 965 101 950 l 101 325 b 401 -12 101 99 231 -12 b 733 322 622 -12 735 122 z m 272 1021 l 282 1021 l 596 1224 l 514 1243 z m 494 1021 l 504 1021 l 818 1224 l 736 1243 z "},"ű":{"ha":669,"x_min":0,"x_max":0,"o":""},"Ÿ":{"ha":851,"x_min":0,"x_max":0,"o":"m 392 1140 b 344 1189 392 1168 369 1189 b 299 1140 318 1189 299 1168 b 344 1094 299 1115 318 1094 b 392 1140 369 1094 392 1115 z m 574 1140 b 526 1189 574 1168 551 1189 b 481 1140 500 1189 481 1168 b 526 1094 481 1115 500 1094 b 574 1140 551 1094 574 1115 z m 532 978 l 532 965 b 582 681 708 965 676 872 l 463 439 l 250 811 b 282 967 156 971 233 967 l 282 978 l 13 978 l 13 967 b 154 860 68 961 92 967 b 407 417 154 860 203 778 l 407 144 b 317 14 407 13 375 14 l 317 0 l 557 0 l 557 14 b 465 144 499 14 465 13 l 465 418 l 586 663 b 831 965 738 969 746 965 l 831 978 z "},"Ź":{"ha":713,"x_min":0,"x_max":0,"o":""},"ź":{"ha":568,"x_min":0,"x_max":0,"o":"m 486 642 l 49 642 l 42 458 l 56 458 b 401 631 67 628 215 631 l 44 0 l 475 0 l 488 211 l 474 211 b 138 11 456 18 346 11 z m 117 756 l 126 756 l 440 958 l 358 978 z "},"Ż":{"ha":713,"x_min":0,"x_max":0,"o":""},"ż":{"ha":568,"x_min":0,"x_max":0,"o":"m 486 642 l 49 642 l 42 458 l 56 458 b 401 631 67 628 215 631 l 44 0 l 475 0 l 488 211 l 474 211 b 138 11 456 18 346 11 z m 354 819 b 289 886 354 857 325 886 b 222 819 251 886 222 857 b 289 754 222 783 251 754 b 354 819 325 754 354 783 z "},"Ž":{"ha":713,"x_min":0,"x_max":0,"o":""},"ž":{"ha":568,"x_min":0,"x_max":0,"o":"m 269 815 l 104 978 l 89 978 l 269 717 l 450 978 l 435 978 z m 486 642 l 49 642 l 42 458 l 56 458 b 401 631 67 628 215 631 l 44 0 l 475 0 l 488 211 l 474 211 b 138 11 456 18 346 11 z "},"ƒ":{"ha":760,"x_min":0,"x_max":0,"o":"m 703 964 b 592 1021 694 978 665 1021 b 365 525 407 1021 399 793 l 261 525 l 260 508 l 365 508 l 268 -143 b 160 -321 268 -143 249 -321 b 99 -285 93 -321 92 -287 b 124 -262 108 -282 118 -274 b 103 -199 136 -239 125 -210 b 39 -221 79 -187 51 -197 b 43 -274 32 -237 33 -260 b 157 -332 51 -287 72 -332 b 389 136 346 -333 344 -200 l 440 508 l 572 508 l 579 525 l 442 525 l 488 857 b 590 1010 488 857 511 1010 b 649 975 650 1010 653 976 b 621 951 636 972 626 964 b 643 889 610 928 619 900 b 706 910 665 878 694 886 b 703 964 714 926 711 949 z "},"ˆ":{"ha":361,"x_min":0,"x_max":0,"o":"m 181 914 l 346 738 l 361 738 l 181 999 l 0 738 l 15 738 z "},"ˇ":{"ha":361,"x_min":0,"x_max":0,"o":"m 181 824 l 15 1000 l 0 1000 l 181 739 l 361 1000 l 346 1000 z "},"ˉ":{"ha":424,"x_min":0,"x_max":0,"o":"m 458 838 l 458 888 l -35 888 l -35 838 z "},"˘":{"ha":343,"x_min":0,"x_max":0,"o":"m 174 849 b 3 978 29 849 3 926 l -1 978 b 174 793 -1 872 39 793 b 344 978 306 793 344 872 l 342 978 b 174 849 342 926 314 849 z "},"˙":{"ha":349,"x_min":0,"x_max":0,"o":"m 243 897 b 178 964 243 935 214 964 b 111 897 140 964 111 935 b 178 832 111 861 140 832 b 243 897 214 832 243 861 z "},"˚":{"ha":386,"x_min":0,"x_max":0,"o":"m 196 757 b 324 885 267 757 324 815 b 196 1014 324 956 267 1014 b 68 885 125 1014 68 956 b 196 757 68 815 125 757 z m 196 982 b 292 885 249 982 292 939 b 196 789 292 832 249 789 b 100 885 142 789 100 832 b 196 982 100 939 142 982 z "},"˛":{"ha":369,"x_min":0,"x_max":0,"o":"m 325 -14 l 325 -7 b 157 -229 197 -50 114 -131 b 269 -283 157 -229 182 -283 b 368 -172 332 -283 368 -243 l 357 -172 b 285 -258 357 -204 333 -258 b 197 -196 285 -258 215 -269 b 325 -14 185 -143 247 -47 z "},"˜":{"ha":557,"x_min":0,"x_max":0,"o":"m 336 800 b 581 918 336 800 511 735 l 575 919 b 371 860 543 843 414 842 l 218 919 b -25 801 218 919 43 982 l -21 800 b 185 860 18 885 140 876 z "},"˝":{"ha":715,"x_min":0,"x_max":0,"o":"m 104 774 l 114 774 l 428 976 l 346 996 z m 326 774 l 336 774 l 650 976 l 568 996 z "},"Ω":{"ha":886,"x_min":0,"x_max":0,"o":"m 829 142 b 696 64 803 76 782 64 l 544 64 b 668 226 558 124 621 176 b 825 625 785 350 825 501 b 444 1022 825 843 699 1022 b 64 625 190 1022 64 843 b 221 226 64 501 104 350 b 344 64 268 176 331 124 l 193 64 b 60 142 107 64 86 76 l 49 142 l 78 0 l 389 0 b 147 618 349 204 147 238 b 444 1010 147 969 342 1010 b 742 618 547 1010 742 969 b 500 0 742 238 540 204 l 811 0 l 840 142 z "},"μ":{"ha":671,"x_min":0,"x_max":0,"o":"m 643 18 b 572 104 585 25 572 38 l 572 654 l 438 629 l 438 618 b 503 532 503 618 503 617 l 503 147 b 336 24 483 86 435 24 b 167 179 260 24 175 63 l 167 654 l 22 629 l 22 618 b 100 522 100 618 100 618 l 100 -351 b 128 -367 100 -351 97 -374 l 238 -349 l 238 -337 b 167 -251 179 -331 167 -318 l 167 31 b 503 118 319 -65 483 18 l 503 4 b 532 -11 503 4 501 -18 l 643 7 l 643 18 z "},"π":{"ha":788,"x_min":0,"x_max":0,"o":"m 592 571 b 768 715 710 571 768 594 l 763 715 b 576 632 763 639 700 632 l 249 632 b 14 497 75 632 14 497 l 19 493 b 219 571 61 560 158 571 l 244 571 l 233 251 b 97 -50 225 113 183 17 l 101 -57 b 278 243 101 -57 267 11 l 289 571 l 485 571 l 485 76 b 592 -12 485 76 483 -12 b 688 51 642 -12 675 15 l 678 51 b 635 26 678 51 668 26 b 553 111 572 26 553 61 l 553 571 z "},"‐":{"ha":621,"x_min":0,"x_max":0,"o":"m 89 374 l 89 325 l 525 325 l 525 374 z "},"–":{"ha":779,"x_min":0,"x_max":0,"o":"m 0 374 l 0 325 l 779 325 l 779 374 z "},"—":{"ha":1465,"x_min":0,"x_max":0,"o":"m 0 374 l 0 325 l 1467 325 l 1467 374 z "},"‘":{"ha":242,"x_min":0,"x_max":0,"o":"m 99 761 b 167 761 117 742 147 742 b 165 828 185 781 185 810 b 133 843 156 838 144 840 b 185 996 111 847 78 925 l 182 1000 b 97 918 125 971 113 943 b 99 761 67 861 69 789 z "},"’":{"ha":253,"x_min":0,"x_max":0,"o":"m 163 965 b 94 965 144 985 114 985 b 96 899 76 946 76 917 b 128 883 106 889 117 886 b 76 731 150 879 183 801 l 79 726 b 164 808 136 756 149 783 b 163 965 194 865 192 938 z "},"‚":{"ha":256,"x_min":0,"x_max":0,"o":"m 163 74 b 94 74 144 93 114 93 b 96 6 76 54 75 22 b 129 -7 108 -4 118 -4 b 76 -161 151 -11 183 -90 l 79 -165 b 164 -83 136 -136 149 -108 b 163 74 194 -26 192 46 z "},"“":{"ha":465,"x_min":0,"x_max":0,"o":"m 99 761 b 167 761 117 742 147 742 b 165 828 185 781 185 810 b 133 843 156 838 144 840 b 185 996 111 847 78 925 l 182 1000 b 97 918 125 971 113 943 b 99 761 67 861 69 789 z m 304 761 b 372 761 322 742 353 742 b 371 828 390 781 390 810 b 339 843 361 838 350 840 b 390 996 317 847 283 925 l 388 1000 b 303 918 331 971 318 943 b 304 761 272 861 275 789 z "},"”":{"ha":464,"x_min":0,"x_max":0,"o":"m 364 967 b 296 967 346 986 315 986 b 297 900 278 947 278 918 b 329 885 307 890 318 888 b 278 732 351 881 385 803 l 281 728 b 365 810 338 757 350 785 b 364 967 396 867 393 939 z m 158 967 b 90 967 140 986 110 986 b 92 900 72 947 72 918 b 124 885 101 890 113 888 b 72 732 146 881 179 803 l 75 728 b 160 810 132 757 144 785 b 158 967 190 867 188 939 z "},"„":{"ha":464,"x_min":0,"x_max":0,"o":"m 167 74 b 99 74 149 93 118 93 b 100 6 81 54 79 22 b 133 -7 113 -4 122 -4 b 81 -161 156 -11 188 -90 l 83 -165 b 168 -83 140 -136 153 -108 b 167 74 199 -26 196 46 z m 371 74 b 303 74 353 93 322 93 b 304 6 285 54 283 22 b 338 -7 317 -4 326 -4 b 285 -161 360 -11 392 -90 l 288 -165 b 372 -83 344 -136 357 -108 b 371 74 403 -26 400 46 z "},"†":{"ha":493,"x_min":0,"x_max":0,"o":"m 246 997 b 196 946 218 997 196 974 b 246 896 196 918 218 896 b 297 946 275 896 297 918 b 246 997 297 974 275 997 z m 133 614 b 35 624 107 632 61 650 b 35 561 18 607 18 579 b 97 563 53 544 81 544 b 110 592 106 571 108 582 b 168 564 110 599 147 592 l 174 568 b 133 614 160 592 143 607 z m 257 560 b 278 757 257 653 278 703 b 246 842 278 757 290 842 b 215 757 201 842 215 757 b 236 560 215 703 236 653 b 196 406 236 560 240 492 b 243 -368 240 92 243 -285 l 250 -368 b 297 406 250 -286 253 92 b 257 560 253 492 257 560 z m 458 624 b 360 614 432 650 386 632 b 319 568 350 607 333 592 l 325 564 b 383 592 346 592 383 599 b 396 563 385 582 388 571 b 458 561 413 544 440 544 b 458 624 475 579 475 607 z "},"‡":{"ha":544,"x_min":0,"x_max":0,"o":"m 281 500 b 303 703 281 596 303 647 b 269 789 303 703 315 789 b 239 703 224 789 239 703 b 260 500 239 647 260 596 b 182 342 260 364 182 342 b 261 185 182 342 261 321 b 239 -18 261 89 239 38 b 272 -104 239 -18 226 -104 b 304 -18 318 -104 304 -18 b 282 185 304 38 282 89 b 360 342 282 321 360 342 b 281 500 360 342 281 364 z m 411 533 b 424 503 413 524 415 511 b 488 501 440 485 469 485 b 488 565 504 521 504 549 b 386 556 460 593 414 575 b 344 508 376 549 360 533 l 351 504 b 411 533 372 533 411 540 z m 269 844 b 322 896 300 844 322 868 b 269 949 322 925 300 949 b 218 896 242 949 218 925 b 269 844 218 868 242 844 z m 272 -160 b 219 -211 242 -160 219 -183 b 272 -264 219 -240 242 -264 b 324 -211 300 -264 324 -240 b 272 -160 324 -183 300 -160 z m 118 503 b 131 533 126 511 129 524 b 190 504 131 540 168 533 l 196 508 b 154 556 182 533 164 549 b 53 565 128 575 81 593 b 53 501 36 549 36 521 b 118 503 72 485 100 485 z m 489 183 b 425 182 469 200 442 200 b 411 151 415 174 413 161 b 351 181 411 144 374 151 l 346 176 b 388 129 361 151 378 136 b 489 119 414 110 461 92 b 489 183 506 136 506 164 z m 132 151 b 118 182 131 161 126 174 b 54 183 101 200 74 200 b 54 119 38 164 38 136 b 156 129 82 92 129 110 b 197 176 165 136 182 151 l 192 181 b 132 151 169 151 132 144 z "},"•":{"ha":497,"x_min":0,"x_max":0,"o":"m 246 371 b 351 475 304 371 351 418 b 246 581 351 535 304 581 b 140 475 188 581 140 535 b 246 371 140 418 188 371 z "},"…":{"ha":796,"x_min":0,"x_max":0,"o":"m 232 39 b 185 88 232 67 210 88 b 139 39 158 88 139 67 b 185 -7 139 14 158 -7 b 232 39 210 -7 232 14 z m 433 39 b 386 88 433 67 411 88 b 340 39 360 88 340 67 b 386 -7 340 14 360 -7 b 433 39 411 -7 433 14 z m 638 39 b 590 88 638 67 615 88 b 544 39 564 88 544 67 b 590 -7 544 14 564 -7 b 638 39 615 -7 638 14 z "},"‰":{"ha":1440,"x_min":0,"x_max":0,"o":"m 139 0 l 196 0 l 829 978 l 772 978 z m 767 533 b 588 278 614 533 588 379 b 767 33 588 178 614 33 b 947 278 919 33 947 178 b 767 533 947 379 919 533 z m 767 46 b 642 278 707 46 642 79 b 767 521 642 478 706 521 b 893 278 826 521 893 478 b 767 46 893 79 831 46 z m 203 942 b 24 686 50 942 24 788 b 203 442 24 586 50 442 b 383 686 356 442 383 586 b 203 942 383 788 356 942 z m 203 454 b 78 686 143 454 78 488 b 203 929 78 886 142 929 b 329 686 263 929 329 886 b 203 454 329 488 267 454 z m 1189 533 b 1010 278 1036 533 1010 379 b 1189 33 1010 178 1036 33 b 1369 278 1342 33 1369 178 b 1189 533 1369 379 1342 533 z m 1189 46 b 1064 278 1129 46 1064 79 b 1189 521 1064 478 1128 521 b 1315 278 1249 521 1315 478 b 1189 46 1315 79 1253 46 z "},"‹":{"ha":471,"x_min":0,"x_max":0,"o":"m 389 701 l 68 369 l 389 46 l 389 64 l 146 369 l 389 683 z "},"›":{"ha":471,"x_min":0,"x_max":0,"o":"m 67 683 l 310 369 l 67 64 l 67 46 l 388 369 l 67 701 z "},"⁄":{"ha":479,"x_min":0,"x_max":0,"o":"m 636 1019 l -203 0 l -169 0 l 671 1019 z "},"€":{"ha":792,"x_min":0,"x_max":0,"o":"m 493 978 b 711 722 518 978 711 993 l 724 722 l 724 906 b 493 990 636 976 596 990 b 181 568 314 990 197 861 l 40 568 l 29 550 l 179 550 b 178 489 179 531 178 510 b 179 433 178 469 179 451 l 40 433 l 29 417 l 181 417 b 492 -12 196 125 313 -12 b 724 74 600 -12 621 6 l 724 256 l 711 256 b 493 0 711 -17 510 0 b 261 417 449 0 279 17 l 526 417 l 536 433 l 261 433 b 260 489 261 451 260 469 b 261 550 260 511 261 531 l 549 550 l 558 568 l 263 568 b 493 978 282 951 446 978 z "},"ℓ":{"ha":428,"x_min":0,"x_max":0,"o":"m 192 783 b 338 967 192 1056 314 996 b 274 482 407 878 406 607 l 190 403 z m 390 139 b 289 26 360 44 314 32 b 188 226 219 18 188 113 l 189 374 l 276 457 b 349 975 424 583 438 867 b 118 768 271 1068 118 1043 l 118 360 l 31 290 l 31 264 l 118 331 l 118 293 b 265 -12 118 78 158 -12 b 399 135 329 -12 383 46 z "},"™":{"ha":867,"x_min":0,"x_max":0,"o":"m 18 978 l 18 864 l 31 864 b 107 965 31 965 72 965 l 164 965 l 164 628 b 129 592 164 592 153 592 l 129 579 l 226 579 l 226 592 b 193 628 204 592 193 592 l 193 965 l 249 965 b 326 864 265 965 326 965 l 339 864 l 339 978 z m 783 650 l 783 915 b 826 965 783 958 801 965 l 826 978 l 750 978 l 635 636 l 481 978 l 397 978 l 397 965 b 460 933 413 965 439 965 l 460 725 b 386 592 460 597 440 592 l 386 579 l 533 579 l 533 592 b 474 725 486 592 474 594 l 474 908 l 624 574 l 628 574 l 750 938 l 750 650 b 708 592 750 597 732 592 l 708 579 l 828 579 l 828 592 b 783 650 804 592 783 597 z "},"Ω":{"ha":886,"x_min":0,"x_max":0,"o":"m 829 142 b 696 64 803 76 782 64 l 544 64 b 668 226 558 124 621 176 b 825 625 785 350 825 501 b 444 1022 825 843 699 1022 b 64 625 190 1022 64 843 b 221 226 64 501 104 350 b 344 64 268 176 331 124 l 193 64 b 60 142 107 64 86 76 l 49 142 l 78 0 l 389 0 b 147 618 349 204 147 238 b 444 1010 147 969 342 1010 b 742 618 547 1010 742 969 b 500 0 742 238 540 204 l 811 0 l 840 142 z "},"℮":{"ha":1239,"x_min":0,"x_max":0,"o":"m 225 854 b 618 1000 325 944 465 1000 b 1014 851 774 1000 914 943 l 1014 535 l 225 535 z m 618 1021 b 44 511 301 1021 44 792 b 618 0 44 229 301 0 b 1068 194 801 0 963 76 l 1040 194 b 618 21 939 89 788 21 b 225 167 465 21 325 76 l 225 511 l 1192 511 b 618 1021 1192 792 935 1021 z "},"∂":{"ha":624,"x_min":0,"x_max":0,"o":"m 325 1033 b 101 885 239 1033 124 969 l 131 796 l 138 799 b 325 1021 103 915 239 1021 b 483 499 453 1021 515 897 b 328 622 457 597 372 622 b 58 308 211 622 72 468 b 278 -12 42 114 108 -12 b 551 471 453 -12 538 239 b 325 1033 571 801 538 1033 z m 278 0 b 136 297 182 0 107 53 b 358 592 164 536 282 592 b 482 478 424 592 465 543 b 278 0 453 151 372 0 z "},"∆":{"ha":992,"x_min":0,"x_max":0,"o":"m 521 1025 l 444 1000 l 46 39 l 44 36 l 53 0 l 908 0 l 929 44 z m 78 39 l 457 950 l 833 39 z "},"∏":{"ha":707,"x_min":0,"x_max":0,"o":"m 663 965 l 663 978 l 36 978 l 36 965 b 108 828 106 965 108 924 l 108 57 b 36 -106 108 -50 103 -106 l 36 -118 l 233 -118 l 233 -106 b 179 57 168 -106 179 -50 l 179 822 b 233 963 179 919 167 963 l 454 963 b 521 822 522 963 521 919 l 521 57 b 454 -106 521 -50 521 -106 l 454 -118 l 663 -118 l 663 -106 b 596 57 596 -106 596 -50 l 596 828 b 663 965 596 924 594 965 z "},"∑":{"ha":899,"x_min":0,"x_max":0,"o":"m 142 965 l 421 965 b 793 732 625 965 760 946 l 818 732 l 793 978 l 29 978 l 390 333 l 106 -136 l 810 -136 l 847 160 l 825 160 b 399 -122 796 -32 800 -122 l 136 -122 l 464 407 z "},"−":{"ha":869,"x_min":0,"x_max":0,"o":"m 807 339 l 807 383 l 67 383 l 67 339 z "},"∕":{"ha":475,"x_min":0,"x_max":0,"o":"m 636 1019 l -203 0 l -158 0 l 682 1019 z "},"∙":{"ha":296,"x_min":0,"x_max":0,"o":"m 206 414 b 157 464 206 442 183 464 b 108 414 129 464 108 442 b 157 365 108 388 129 365 b 206 414 183 365 206 388 z "},"√":{"ha":785,"x_min":0,"x_max":0,"o":"m 508 -129 l 221 551 l 64 486 l 67 476 b 197 401 119 497 167 474 l 479 -258 l 504 -249 l 754 1183 l 733 1189 z "},"∞":{"ha":1019,"x_min":0,"x_max":0,"o":"m 885 558 b 736 624 846 600 793 624 b 589 558 679 624 628 600 b 507 460 585 553 507 460 b 422 558 507 460 426 554 b 275 624 383 600 332 624 b 128 558 219 624 168 600 b 128 251 50 475 50 335 b 275 186 168 210 219 186 b 422 251 332 186 383 210 b 507 350 426 256 507 350 b 589 251 507 350 585 257 b 736 186 628 210 679 186 b 885 251 793 186 846 210 b 885 558 964 335 964 475 z m 374 299 b 275 256 347 271 313 256 b 179 299 238 256 201 271 b 136 406 151 326 138 364 b 178 513 136 446 151 483 b 275 556 203 540 239 556 b 374 513 311 556 347 542 l 461 404 b 374 299 461 404 381 308 z m 833 299 b 736 256 808 271 774 256 b 640 299 700 256 664 271 b 551 404 632 307 551 404 b 640 513 551 404 635 507 b 736 556 665 540 701 556 b 833 513 772 556 808 540 b 875 406 861 483 875 446 b 833 299 875 364 861 326 z "},"∫":{"ha":419,"x_min":0,"x_max":0,"o":"m 382 1110 b 293 1146 372 1121 356 1146 b 160 618 139 1146 131 968 l 208 7 b 133 -283 238 -287 133 -283 b 89 -258 94 -283 85 -261 b 111 -236 100 -256 107 -247 b 88 -182 119 -215 110 -190 b 33 -206 67 -172 42 -183 b 40 -253 28 -219 32 -240 b 132 -292 49 -264 69 -292 b 268 235 289 -292 297 -114 l 219 847 b 293 1136 193 1138 293 1136 b 332 1115 335 1136 338 1118 b 310 1093 322 1113 315 1104 b 335 1039 303 1071 313 1047 b 388 1063 356 1029 381 1040 b 382 1110 394 1076 392 1097 z "},"≈":{"ha":685,"x_min":0,"x_max":0,"o":"m 399 458 b 643 576 399 458 574 393 l 638 578 b 433 518 606 501 476 500 l 281 578 b 38 460 281 578 106 640 l 42 458 b 247 518 81 543 203 535 z m 399 214 b 643 332 399 214 574 149 l 638 333 b 433 274 606 257 476 256 l 281 333 b 38 215 281 333 106 396 l 42 214 b 247 274 81 299 203 290 z "},"≠":{"ha":732,"x_min":0,"x_max":0,"o":"m 667 493 l 667 563 l 493 563 l 571 728 l 508 757 l 415 563 l 64 563 l 64 493 l 383 493 l 288 290 l 64 290 l 64 221 l 254 221 l 182 68 l 244 39 l 331 221 l 667 221 l 667 290 l 364 290 l 460 493 z "},"≤":{"ha":739,"x_min":0,"x_max":0,"o":"m 65 42 l 65 0 l 665 0 l 665 42 z m 144 479 l 665 746 l 665 810 l 78 508 l 78 449 l 665 147 l 665 208 z "},"≥":{"ha":739,"x_min":0,"x_max":0,"o":"m 76 42 l 76 0 l 676 0 l 676 42 z m 76 208 l 76 147 l 664 449 l 664 508 l 76 810 l 76 746 l 597 479 z "},"◊":{"ha":776,"x_min":0,"x_max":0,"o":"m 418 1018 l 356 1018 l 67 454 l 67 454 l 356 -110 l 418 -110 l 707 454 l 707 454 z m 638 454 l 386 -40 l 135 454 l 135 454 l 386 949 z "},"":{"ha":738,"x_min":0,"x_max":0,"o":"m 368 654 b 78 318 193 654 78 535 b 368 -12 78 96 193 -12 b 660 318 546 -12 660 93 b 368 654 660 544 546 654 z m 368 0 b 157 318 292 0 157 31 b 368 642 157 610 292 642 b 578 318 444 642 578 610 b 368 0 578 31 444 0 z "},"":{"ha":575,"x_min":0,"x_max":0,"o":"m 339 119 l 339 654 l 299 654 l 132 528 l 139 518 b 271 501 242 600 271 579 l 271 119 b 174 11 271 17 231 11 l 174 0 l 439 0 l 439 11 b 339 119 390 11 339 13 z "},"":{"ha":596,"x_min":0,"x_max":0,"o":"m 479 124 b 399 65 451 69 442 65 l 183 65 b 471 535 415 324 511 407 b 181 621 419 696 239 660 b 104 531 111 575 104 543 b 126 492 103 517 111 500 b 188 507 147 479 175 486 b 171 565 200 526 193 553 b 138 568 160 571 146 571 b 186 615 133 567 142 592 b 374 543 246 639 329 639 b 235 150 422 439 382 308 l 100 0 l 453 0 l 489 124 z "},"":{"ha":724,"x_min":0,"x_max":0,"o":"m 324 -368 b 639 -85 444 -368 639 -321 b 389 178 639 31 553 158 b 350 654 681 247 601 654 b 89 425 297 654 89 650 l 106 425 b 426 561 100 574 313 661 b 283 168 588 421 476 168 l 283 151 b 554 -89 479 151 546 26 b 324 -356 568 -293 465 -356 b 160 -304 213 -356 153 -303 b 192 -287 172 -303 183 -297 b 185 -217 208 -265 206 -235 b 114 -224 164 -200 132 -203 b 107 -276 103 -239 100 -261 b 324 -368 125 -310 201 -368 z "},"":{"ha":763,"x_min":0,"x_max":0,"o":"m 696 -67 l 696 -18 l 572 -18 l 572 642 l 536 642 l 65 -50 l 65 -67 l 499 -67 l 499 -240 b 408 -356 499 -350 467 -356 l 408 -368 l 663 -368 l 663 -356 b 572 -233 604 -356 572 -353 l 572 -67 z m 499 -18 l 150 -18 b 131 22 103 -18 103 -18 l 499 568 z "},"":{"ha":772,"x_min":0,"x_max":0,"o":"m 143 229 l 188 567 l 647 567 l 661 642 l 181 642 l 117 150 b 629 10 382 235 576 175 b 350 -356 697 -217 507 -356 b 164 -290 233 -356 151 -292 b 200 -271 178 -289 192 -285 b 185 -199 214 -247 208 -214 b 113 -215 160 -183 128 -192 b 114 -272 101 -232 106 -257 b 350 -368 124 -289 201 -368 b 707 24 515 -368 754 -264 b 143 229 674 217 421 325 z "},"":{"ha":708,"x_min":0,"x_max":0,"o":"m 383 654 b 136 422 231 654 168 535 b 429 976 136 822 247 992 b 525 940 517 969 536 938 b 488 929 513 942 499 936 b 479 857 467 911 463 879 b 553 849 497 835 531 831 b 569 903 568 860 575 886 b 388 990 565 917 556 990 b 63 442 168 990 63 710 b 361 -12 63 165 126 -12 b 643 336 554 -12 643 121 b 383 654 643 468 581 654 z m 361 0 b 136 364 218 0 136 121 b 379 617 158 451 203 617 b 571 315 463 617 571 550 b 361 0 571 100 465 0 z "},"":{"ha":760,"x_min":0,"x_max":0,"o":"m 94 642 l 75 499 l 88 499 b 197 579 108 557 113 579 l 667 579 b 293 -368 425 214 318 61 l 386 -368 b 682 579 386 13 479 218 l 721 642 z "},"":{"ha":729,"x_min":0,"x_max":0,"o":"m 383 549 b 163 814 246 606 163 658 b 356 978 163 915 264 978 b 547 763 446 978 543 938 b 383 549 551 640 426 556 z m 606 224 b 368 0 610 33 438 0 b 113 233 253 0 113 43 b 313 504 113 411 251 478 b 358 479 333 492 335 492 b 606 224 565 371 603 318 z m 668 246 b 400 539 668 399 542 468 b 597 760 494 565 597 681 b 356 990 597 892 522 990 b 113 768 229 990 113 911 b 301 511 113 643 151 596 b 50 232 157 456 50 351 b 368 -12 50 64 163 -12 b 668 246 539 -12 668 68 z "},"":{"ha":690,"x_min":0,"x_max":0,"o":"m 313 -12 b 560 219 465 -12 528 107 b 279 -354 560 -236 461 -369 b 171 -299 192 -347 160 -296 b 208 -287 183 -300 197 -294 b 217 -215 229 -269 233 -237 b 143 -207 199 -193 165 -189 b 126 -261 128 -218 121 -244 b 321 -368 131 -275 153 -368 b 633 200 540 -368 633 -162 b 335 654 633 476 569 654 b 53 306 142 654 53 521 b 313 -12 53 174 115 -12 z m 335 642 b 560 278 478 642 560 521 b 317 25 538 190 493 25 b 125 326 233 25 125 92 b 335 642 125 542 231 642 z "},"":{"ha":643,"x_min":0,"x_max":0,"o":"m 346 0 l 346 444 l 451 375 b 346 0 604 271 596 17 z m 292 565 l 207 621 b 292 978 -28 774 143 974 z m 451 461 l 346 529 l 346 976 b 557 693 538 965 557 876 l 571 693 l 571 926 b 346 990 571 926 482 979 l 346 1161 l 292 1161 l 292 990 b 57 881 128 988 57 881 b 206 539 -42 703 139 590 l 292 481 l 292 0 b 54 325 94 7 54 83 l 43 325 l 43 58 b 292 -12 43 58 131 -4 l 292 -181 l 346 -181 l 346 -12 b 585 101 533 -4 585 101 b 451 461 626 179 640 336 z "},"":{"ha":732,"x_min":0,"x_max":0,"o":"m 389 19 b 186 322 293 33 186 119 b 389 642 186 565 315 631 z m 629 176 b 417 18 611 110 549 18 l 417 642 b 581 589 546 642 594 585 b 546 586 574 592 560 592 b 526 522 522 575 514 547 b 590 504 536 500 568 494 b 615 547 607 514 615 529 b 417 654 615 571 590 654 l 417 824 l 389 824 l 389 654 b 103 317 217 639 103 488 b 389 -12 103 78 263 -7 l 389 -164 l 417 -164 l 417 -12 b 639 175 572 -6 628 108 z "},"":{"ha":643,"x_min":0,"x_max":0,"o":"m 346 0 l 346 444 l 451 375 b 346 0 604 271 596 17 z m 292 565 l 207 621 b 292 978 -28 774 143 974 z m 451 461 l 346 529 l 346 976 b 557 693 538 965 557 876 l 571 693 l 571 926 b 346 990 571 926 482 979 l 346 1161 l 292 1161 l 292 990 b 57 881 128 988 57 881 b 206 539 -42 703 139 590 l 292 481 l 292 0 b 54 325 94 7 54 83 l 43 325 l 43 58 b 292 -12 43 58 131 -4 l 292 -181 l 346 -181 l 346 -12 b 585 101 533 -4 585 101 b 451 461 626 179 640 336 z "},"":{"ha":738,"x_min":0,"x_max":0,"o":"m 368 654 b 78 318 193 654 78 535 b 368 -12 78 96 193 -12 b 660 318 546 -12 660 93 b 368 654 660 544 546 654 z m 368 0 b 157 318 292 0 157 31 b 368 642 157 610 292 642 b 578 318 444 642 578 610 b 368 0 578 31 444 0 z "},"":{"ha":575,"x_min":0,"x_max":0,"o":"m 339 119 l 339 654 l 299 654 l 132 528 l 139 518 b 271 501 242 600 271 579 l 271 119 b 174 11 271 17 231 11 l 174 0 l 439 0 l 439 11 b 339 119 390 11 339 13 z "},"":{"ha":596,"x_min":0,"x_max":0,"o":"m 479 124 b 399 65 451 69 442 65 l 183 65 b 471 535 415 324 511 407 b 181 621 419 696 239 660 b 104 531 111 575 104 543 b 126 492 103 517 111 500 b 188 507 147 479 175 486 b 171 565 200 526 193 553 b 138 568 160 571 146 571 b 186 615 133 567 142 592 b 374 543 246 639 329 639 b 235 150 422 439 382 308 l 100 0 l 453 0 l 489 124 z "},"":{"ha":724,"x_min":0,"x_max":0,"o":"m 324 -368 b 639 -85 444 -368 639 -321 b 389 178 639 31 553 158 b 350 654 681 247 601 654 b 89 425 297 654 89 650 l 106 425 b 426 561 100 574 313 661 b 283 168 588 421 476 168 l 283 151 b 554 -89 479 151 546 26 b 324 -356 568 -293 465 -356 b 160 -304 213 -356 153 -303 b 192 -287 172 -303 183 -297 b 185 -217 208 -265 206 -235 b 114 -224 164 -200 132 -203 b 107 -276 103 -239 100 -261 b 324 -368 125 -310 201 -368 z "},"":{"ha":763,"x_min":0,"x_max":0,"o":"m 696 -67 l 696 -18 l 572 -18 l 572 642 l 536 642 l 65 -50 l 65 -67 l 499 -67 l 499 -240 b 408 -356 499 -350 467 -356 l 408 -368 l 663 -368 l 663 -356 b 572 -233 604 -356 572 -353 l 572 -67 z m 499 -18 l 150 -18 b 131 22 103 -18 103 -18 l 499 568 z "},"":{"ha":772,"x_min":0,"x_max":0,"o":"m 143 229 l 188 567 l 647 567 l 661 642 l 181 642 l 117 150 b 629 10 382 235 576 175 b 350 -356 697 -217 507 -356 b 164 -290 233 -356 151 -292 b 200 -271 178 -289 192 -285 b 185 -199 214 -247 208 -214 b 113 -215 160 -183 128 -192 b 114 -272 101 -232 106 -257 b 350 -368 124 -289 201 -368 b 707 24 515 -368 754 -264 b 143 229 674 217 421 325 z "},"":{"ha":708,"x_min":0,"x_max":0,"o":"m 383 654 b 136 422 231 654 168 535 b 429 976 136 822 247 992 b 525 940 517 969 536 938 b 488 929 513 942 499 936 b 479 857 467 911 463 879 b 553 849 497 835 531 831 b 569 903 568 860 575 886 b 388 990 565 917 556 990 b 63 442 168 990 63 710 b 361 -12 63 165 126 -12 b 643 336 554 -12 643 121 b 383 654 643 468 581 654 z m 361 0 b 136 364 218 0 136 121 b 379 617 158 451 203 617 b 571 315 463 617 571 550 b 361 0 571 100 465 0 z "},"":{"ha":760,"x_min":0,"x_max":0,"o":"m 94 642 l 75 499 l 88 499 b 197 579 108 557 113 579 l 667 579 b 293 -368 425 214 318 61 l 386 -368 b 682 579 386 13 479 218 l 721 642 z "},"":{"ha":729,"x_min":0,"x_max":0,"o":"m 383 549 b 163 814 246 606 163 658 b 356 978 163 915 264 978 b 547 763 446 978 543 938 b 383 549 551 640 426 556 z m 606 224 b 368 0 610 33 438 0 b 113 233 253 0 113 43 b 313 504 113 411 251 478 b 358 479 333 492 335 492 b 606 224 565 371 603 318 z m 668 246 b 400 539 668 399 542 468 b 597 760 494 565 597 681 b 356 990 597 892 522 990 b 113 768 229 990 113 911 b 301 511 113 643 151 596 b 50 232 157 456 50 351 b 368 -12 50 64 163 -12 b 668 246 539 -12 668 68 z "},"":{"ha":690,"x_min":0,"x_max":0,"o":"m 313 -12 b 560 219 465 -12 528 107 b 279 -354 560 -236 461 -369 b 171 -299 192 -347 160 -296 b 208 -287 183 -300 197 -294 b 217 -215 229 -269 233 -237 b 143 -207 199 -193 165 -189 b 126 -261 128 -218 121 -244 b 321 -368 131 -275 153 -368 b 633 200 540 -368 633 -162 b 335 654 633 476 569 654 b 53 306 142 654 53 521 b 313 -12 53 174 115 -12 z m 335 642 b 560 278 478 642 560 521 b 317 25 538 190 493 25 b 125 326 233 25 125 92 b 335 642 125 542 231 642 z "},"":{"ha":732,"x_min":0,"x_max":0,"o":"m 389 19 b 186 322 293 33 186 119 b 389 642 186 565 315 631 z m 629 176 b 417 18 611 110 549 18 l 417 642 b 581 589 546 642 594 585 b 546 586 574 592 560 592 b 526 522 522 575 514 547 b 590 504 536 500 568 494 b 615 547 607 514 615 529 b 417 654 615 571 590 654 l 417 824 l 389 824 l 389 654 b 103 317 217 639 103 488 b 389 -12 103 78 263 -7 l 389 -164 l 417 -164 l 417 -12 b 639 175 572 -6 628 108 z "},"ﬁ":{"ha":636,"x_min":0,"x_max":0,"o":"m 583 13 b 526 89 533 25 526 13 l 526 642 l 388 642 l 185 642 l 185 642 b 367 1024 185 1000 288 1024 b 485 939 486 1024 519 931 b 447 935 475 942 460 942 b 426 863 421 919 413 889 b 499 843 440 839 472 829 b 528 894 515 853 528 875 b 367 1035 535 1008 433 1035 b 115 642 218 1035 115 961 l 115 642 l 25 642 l 26 629 l 115 629 l 115 81 b 61 11 115 10 114 18 l 61 0 l 263 0 l 263 11 b 185 81 213 15 185 4 l 185 629 l 388 629 b 457 563 446 629 457 611 l 457 89 b 401 13 457 18 454 28 l 401 0 l 583 0 l 583 13 z "},"ﬂ":{"ha":622,"x_min":0,"x_max":0,"o":"m 597 13 b 540 89 547 25 540 13 l 540 1036 l 453 1010 b 328 1035 429 1025 392 1035 b 101 642 179 1035 101 932 l 101 642 l 11 642 l 11 629 l 101 629 l 101 81 b 47 11 101 10 100 18 l 47 0 l 249 0 l 249 11 b 171 81 200 15 171 4 l 171 629 l 317 629 l 319 642 l 171 642 l 171 642 b 328 1024 171 964 249 1024 b 471 918 406 1024 471 1003 l 471 89 b 415 13 471 18 468 28 l 415 0 l 597 0 l 597 13 z "},"Ș":{"ha":696,"x_min":0,"x_max":0,"o":"m 354 -56 b 286 -56 336 -36 306 -36 b 288 -124 268 -75 267 -107 b 321 -136 300 -133 310 -133 b 268 -290 343 -140 375 -219 l 271 -294 b 356 -212 328 -265 340 -237 b 354 -56 386 -156 383 -83 z m 467 461 l 222 621 b 308 978 -15 775 158 978 b 572 693 549 978 572 893 l 586 693 l 586 926 b 308 990 586 926 474 990 b 72 881 140 990 72 881 b 221 539 -26 703 154 590 l 467 375 b 339 0 624 268 613 0 b 69 325 114 0 69 71 l 58 325 l 58 58 b 340 -12 58 58 157 -12 b 600 101 547 -12 600 101 b 467 461 642 179 656 336 z "},"ș":{"ha":550,"x_min":0,"x_max":0,"o":"m 356 325 l 215 413 b 249 642 94 489 76 642 b 463 425 429 642 463 539 l 474 425 l 474 608 b 249 654 474 608 408 654 b 75 565 106 654 75 565 b 196 325 39 475 65 421 l 336 240 b 300 0 442 171 496 0 b 76 238 100 0 76 108 l 65 238 l 65 35 b 300 -12 65 35 132 -12 b 458 50 415 -12 458 50 b 356 325 522 140 483 246 z m 326 -56 b 258 -56 308 -36 278 -36 b 260 -124 240 -75 239 -107 b 293 -136 272 -133 282 -133 b 240 -290 315 -140 347 -219 l 243 -294 b 328 -212 300 -265 313 -237 b 326 -56 358 -156 356 -83 z "},"ț":{"ha":389,"x_min":0,"x_max":0,"o":"m 268 -56 b 200 -56 250 -36 219 -36 b 201 -124 182 -75 181 -107 b 235 -136 214 -133 224 -133 b 182 -290 257 -140 289 -219 l 185 -294 b 269 -212 242 -265 254 -237 b 268 -56 300 -156 297 -83 z m 275 25 b 167 204 213 25 167 61 l 167 629 l 328 629 l 331 642 l 167 642 l 167 860 l 97 851 l 97 642 l 25 642 l 26 629 l 97 629 l 97 200 b 247 -12 97 32 156 -12 b 368 92 315 -12 357 35 l 360 94 b 275 25 350 57 315 25 z "},"Ț":{"ha":840,"x_min":0,"x_max":0,"o":"m 449 -56 b 381 -56 431 -36 400 -36 b 382 -124 363 -75 361 -107 b 415 -136 394 -133 404 -133 b 363 -290 438 -140 469 -219 l 365 -294 b 450 -212 422 -265 435 -237 b 449 -56 481 -156 478 -83 z m 26 978 l 26 768 l 38 768 b 244 967 38 968 158 967 l 382 967 l 382 101 b 299 13 382 13 357 13 l 299 0 l 539 0 l 539 13 b 456 101 481 13 456 13 l 456 967 l 593 967 b 800 768 632 967 800 968 l 813 768 l 813 978 z "}}}
